<svg xmlns="http://www.w3.org/2000/svg" xmlns:xlink="http://www.w3.org/1999/xlink" width="500" zoomAndPan="magnify" viewBox="0 0 375 374.999991" height="500" preserveAspectRatio="xMidYMid meet" version="1.0"><defs><clipPath id="868dba6c96"><path d="M 13 14 L 366 14 L 366 360 L 13 360 Z M 13 14 " clip-rule="nonzero"/></clipPath><clipPath id="970db3b57b"><path d="M 22.714844 -119.140625 L 452.378906 6.835938 L 314.160156 478.242188 L -115.5 352.265625 Z M 22.714844 -119.140625 " clip-rule="nonzero"/></clipPath><clipPath id="8e767ba25b"><path d="M -309.484375 -241.027344 L 837 95.125 L 671.984375 657.929688 L -474.5 321.78125 Z M -309.484375 -241.027344 " clip-rule="nonzero"/></clipPath><clipPath id="f2c17052ba"><path d="M 8 10 L 371 10 L 371 364 L 8 364 Z M 8 10 " clip-rule="nonzero"/></clipPath><clipPath id="d3b97f3940"><path d="M 22.714844 -119.140625 L 452.378906 6.835938 L 314.160156 478.242188 L -115.5 352.265625 Z M 22.714844 -119.140625 " clip-rule="nonzero"/></clipPath><clipPath id="9cff520a16"><path d="M -309.484375 -241.027344 L 837 95.125 L 671.984375 657.929688 L -474.5 321.78125 Z M -309.484375 -241.027344 " clip-rule="nonzero"/></clipPath></defs><g clip-path="url(#868dba6c96)"><g clip-path="url(#970db3b57b)"><g clip-path="url(#8e767ba25b)"><path fill="#fff6cb" d="M 236.363281 301.042969 C 200.835938 310.277344 134.050781 368.871094 91.785156 357.621094 C 61.320312 349.515625 9.578125 319.527344 13.257812 266.113281 C 13.257812 266.113281 24.371094 185.644531 37.359375 163.21875 C 37.359375 163.21875 55.703125 118.71875 62.21875 106.714844 C 62.21875 106.714844 78.664062 77.738281 71.609375 46.949219 C 68.167969 36.570312 94.011719 21.785156 105.984375 62.078125 C 105.984375 62.078125 111.917969 83.300781 98.484375 129.066406 C 98.484375 129.066406 92.917969 147.953125 101.492188 159.839844 C 101.492188 159.839844 109.320312 182.699219 160.878906 134.945312 C 160.878906 134.945312 242.335938 37.628906 254.101562 20.835938 C 263.929688 10.179688 294.425781 10.570312 277.285156 42.867188 C 277.285156 42.867188 207.886719 140.054688 205.644531 142.34375 C 196.871094 151.296875 198.382812 170.8125 217.355469 153.25 L 318.238281 64.621094 C 329.519531 55.257812 354.140625 63.484375 336.707031 85.800781 C 336.707031 85.800781 254.460938 168.285156 240.988281 180.800781 C 230.652344 188.699219 227.222656 210.226562 249.882812 195.78125 L 338.503906 142.191406 C 355.535156 131.347656 380.59375 143.769531 354.34375 167.183594 C 354.34375 167.183594 307.453125 200.828125 295.535156 209.699219 C 295.535156 209.699219 252.304688 238.683594 246.296875 243.902344 C 240.289062 249.121094 239.167969 262.554688 254.519531 258.296875 C 269.871094 254.042969 315.792969 249.957031 326.339844 247.703125 C 339.3125 244.933594 356.667969 259.667969 327.382812 272.800781 C 327.382812 272.800781 241.769531 301.109375 236.363281 301.042969 Z M 236.363281 301.042969 " fill-opacity="1" fill-rule="evenodd"/></g></g></g><g clip-path="url(#f2c17052ba)"><g clip-path="url(#d3b97f3940)"><g clip-path="url(#9cff520a16)"><path fill="#7ed957" d="M 157.667969 131.894531 C 161.90625 126.824219 239.0625 34.589844 250.480469 18.300781 C 250.503906 18.265625 250.535156 18.230469 250.558594 18.195312 L 250.765625 17.941406 L 250.847656 17.84375 C 255.136719 13.191406 262.636719 10.179688 269.558594 10.179688 C 274.609375 10.179688 279.296875 11.761719 282.496094 14.980469 C 287.335938 19.859375 289.460938 29.359375 281.191406 44.9375 C 281.097656 45.109375 280.996094 45.277344 280.878906 45.433594 C 280.878906 45.433594 211.054688 143.128906 208.800781 145.429688 C 206.433594 147.851562 205.035156 151.28125 204.914062 154.085938 C 204.898438 154.574219 204.894531 155.039062 204.957031 155.460938 C 204.984375 155.640625 204.96875 155.828125 205.050781 155.945312 C 205.117188 155.945312 205.21875 155.9375 205.289062 155.929688 C 205.632812 155.875 206.011719 155.75 206.441406 155.589844 C 208.53125 154.796875 211.117188 153 214.347656 150.007812 C 214.375 149.980469 214.402344 149.953125 214.433594 149.929688 L 315.3125 61.304688 L 315.410156 61.222656 C 320.496094 57 327.738281 55.578125 333.917969 56.863281 C 338.359375 57.785156 342.21875 60.078125 344.601562 63.476562 C 348.292969 68.742188 348.941406 77.308594 340.1875 88.519531 C 340.078125 88.660156 339.960938 88.792969 339.835938 88.917969 C 339.835938 88.917969 257.484375 171.503906 243.992188 184.035156 C 243.972656 184.058594 243.949219 184.082031 243.925781 184.101562 L 243.746094 184.25 L 243.667969 184.308594 C 240.730469 186.554688 238.503906 190.199219 237.683594 193.40625 C 237.492188 194.167969 237.347656 194.894531 237.347656 195.542969 C 237.347656 195.792969 237.347656 196.03125 237.425781 196.222656 C 237.636719 196.226562 238.175781 196.230469 238.574219 196.167969 C 240.769531 195.824219 243.671875 194.5 247.503906 192.0625 C 247.53125 192.042969 247.5625 192.023438 247.59375 192.007812 C 247.59375 192.007812 319.375 148.59375 333.699219 139.933594 C 335.128906 139.066406 335.988281 138.550781 336.140625 138.457031 L 336.148438 138.453125 C 343.441406 133.816406 351.984375 132.855469 358.460938 134.707031 C 363.488281 136.140625 367.324219 139.234375 369.085938 143.441406 C 371.640625 149.542969 369.933594 159.195312 357.285156 170.480469 C 357.171875 170.585938 357.046875 170.683594 356.921875 170.773438 C 356.921875 170.773438 310.074219 204.382812 298.171875 213.242188 L 297.992188 213.367188 C 297.992188 213.367188 255.148438 242.066406 249.195312 247.238281 C 247.820312 248.429688 246.859375 250.304688 246.628906 252.078125 C 246.539062 252.800781 246.511719 253.511719 246.878906 254.042969 C 247.105469 254.359375 247.515625 254.503906 248.03125 254.601562 C 249.367188 254.859375 251.105469 254.660156 253.335938 254.042969 C 268.746094 249.769531 314.828125 245.644531 325.414062 243.386719 C 331.355469 242.117188 338.015625 243.765625 342.375 247.132812 C 345.808594 249.789062 347.867188 253.453125 347.816406 257.550781 C 347.789062 260.175781 346.890625 263.0625 344.617188 266.023438 C 341.949219 269.492188 337.128906 273.269531 329.191406 276.832031 C 329.050781 276.894531 328.910156 276.945312 328.769531 276.992188 C 328.769531 276.992188 273.871094 295.144531 249.140625 302.371094 C 243.300781 304.078125 238.992188 305.148438 237.191406 305.394531 C 216.054688 311.023438 183.972656 334.078125 152.621094 349.207031 C 130.363281 359.941406 108.40625 366.617188 90.644531 361.890625 C 58.765625 353.402344 5 321.707031 8.847656 265.804688 C 8.851562 265.707031 8.863281 265.605469 8.878906 265.503906 C 8.878906 265.503906 20.242188 184.429688 33.371094 161.28125 C 34.867188 157.667969 52.054688 116.171875 58.328125 104.605469 L 58.371094 104.53125 C 58.371094 104.53125 73.929688 77.183594 67.332031 48.078125 C 65.902344 43.363281 67.96875 37.953125 72.601562 34.488281 C 81.039062 28.171875 100.355469 27.636719 110.214844 60.820312 C 110.222656 60.84375 110.226562 60.863281 110.230469 60.875 C 110.230469 60.875 116.640625 82.894531 102.722656 130.308594 C 102.722656 130.308594 102.722656 130.3125 102.722656 130.3125 C 102.722656 130.3125 100.917969 136.476562 101.140625 143.734375 C 101.28125 148.246094 102.175781 153.238281 105.074219 157.253906 C 105.308594 157.582031 105.496094 157.933594 105.636719 158.3125 C 105.71875 158.464844 107.117188 161.023438 111.714844 160.886719 C 119.648438 160.648438 133.378906 154.355469 157.667969 131.894531 Z M 273.511719 40.546875 C 276.445312 34.96875 277.84375 30.511719 277.984375 26.972656 C 278.085938 24.402344 277.492188 22.480469 276.222656 21.203125 C 274.601562 19.566406 272.128906 19.011719 269.5625 19.011719 C 265.160156 19.011719 260.335938 20.738281 257.519531 23.648438 C 245.054688 41.238281 164.261719 137.777344 164.261719 137.777344 C 164.238281 137.8125 164.207031 137.839844 164.179688 137.871094 L 163.96875 138.097656 L 163.878906 138.183594 C 142.4375 158.042969 128.167969 166.003906 118.886719 168.59375 C 112.171875 170.460938 107.582031 169.738281 104.488281 168.433594 C 100.089844 166.574219 98.226562 163.355469 97.601562 161.988281 C 93.871094 156.578125 92.496094 150.011719 92.3125 144.007812 C 92.066406 136.136719 93.824219 129.335938 94.175781 128.058594 C 94.1875 128.015625 94.199219 127.972656 94.214844 127.933594 C 94.222656 127.898438 94.230469 127.855469 94.242188 127.820312 C 105.917969 88.042969 102.628906 67.484375 101.84375 63.792969 C 101.789062 63.515625 101.746094 63.351562 101.730469 63.296875 C 98.507812 52.464844 94.347656 45.96875 89.933594 42.578125 C 86.457031 39.90625 82.949219 39.441406 80.179688 40.371094 C 78.273438 41.007812 76.730469 42.253906 76.027344 43.746094 C 75.753906 44.335938 75.605469 44.964844 75.804688 45.558594 C 75.8125 45.589844 75.824219 45.617188 75.832031 45.648438 L 75.890625 45.871094 L 75.914062 45.960938 C 82.59375 75.117188 69.289062 102.734375 66.574219 107.9375 C 66.3125 108.441406 66.144531 108.742188 66.097656 108.824219 C 59.628906 120.742188 41.4375 164.898438 41.4375 164.898438 C 41.421875 164.941406 41.402344 164.980469 41.382812 165.019531 L 41.238281 165.3125 L 41.175781 165.429688 C 28.730469 186.925781 18.191406 262.671875 17.652344 266.5625 C 14.246094 317.402344 63.890625 345.632812 92.917969 353.355469 C 108.964844 357.625 128.667969 350.953125 148.777344 341.25 C 180.835938 325.78125 213.742188 302.363281 235.25 296.769531 C 235.628906 296.671875 236.019531 296.621094 236.414062 296.628906 C 237.375 296.640625 241.160156 295.5 246.660156 293.890625 C 270.382812 286.960938 321.96875 269.9375 325.769531 268.683594 C 330.859375 266.382812 334.375 264.082031 336.59375 261.800781 C 338.125 260.230469 338.964844 258.8125 338.980469 257.441406 C 339 256.085938 338.105469 254.996094 336.96875 254.117188 C 334.476562 252.191406 330.660156 251.296875 327.261719 252.023438 C 316.757812 254.265625 270.996094 258.316406 255.699219 262.554688 C 246.84375 265.007812 241.964844 262.421875 239.640625 259.105469 C 238.074219 256.871094 237.476562 253.984375 237.863281 250.964844 C 238.347656 247.144531 240.445312 243.128906 243.398438 240.566406 C 249.304688 235.441406 290.8125 207.546875 292.980469 206.089844 C 304.589844 197.457031 348.242188 166.125 351.566406 163.742188 C 356.109375 159.664062 358.949219 156.019531 360.359375 152.785156 C 361.382812 150.441406 361.605469 148.453125 360.9375 146.851562 C 360.152344 144.984375 358.269531 143.835938 356.035156 143.199219 C 351.628906 141.9375 345.84375 142.753906 340.878906 145.914062 C 340.851562 145.933594 340.820312 145.949219 340.792969 145.96875 C 340.792969 145.96875 269.007812 189.378906 254.683594 198.039062 C 253.253906 198.90625 252.394531 199.425781 252.238281 199.519531 L 252.234375 199.519531 C 245.785156 203.628906 241.027344 205.058594 237.824219 205.070312 C 234.320312 205.078125 231.980469 203.6875 230.464844 201.691406 C 228.636719 199.285156 228.039062 195.46875 229.121094 191.222656 C 230.355469 186.382812 233.699219 180.898438 238.101562 177.449219 C 251.539062 164.929688 328.964844 87.304688 333.375 82.878906 C 336.058594 79.410156 337.601562 76.417969 338.152344 73.867188 C 338.621094 71.707031 338.332031 69.925781 337.363281 68.542969 C 336.21875 66.90625 334.261719 65.953125 332.121094 65.507812 C 328.445312 64.746094 324.125 65.496094 321.085938 67.992188 L 220.304688 156.535156 C 214.960938 161.46875 210.695312 163.742188 207.597656 164.449219 C 204.28125 165.207031 201.761719 164.496094 199.90625 163.148438 C 197.410156 161.332031 195.910156 157.921875 196.085938 153.710938 C 196.285156 149.039062 198.535156 143.28125 202.484375 139.253906 C 204.644531 137.042969 269.683594 45.910156 273.511719 40.546875 Z M 101.773438 63.433594 C 101.886719 63.761719 102.050781 64.007812 102.234375 64.195312 C 102.421875 64.378906 102.636719 64.503906 102.851562 64.585938 C 102.363281 64.371094 101.964844 63.964844 101.773438 63.433594 Z M 101.773438 63.433594 " fill-opacity="1" fill-rule="evenodd"/></g></g></g></svg>