<svg xmlns="http://www.w3.org/2000/svg" xmlns:xlink="http://www.w3.org/1999/xlink" width="500" zoomAndPan="magnify" viewBox="0 0 375 374.999991" height="500" preserveAspectRatio="xMidYMid meet" version="1.0"><defs><clipPath id="faad12f3b2"><path d="M 16 8 L 360 8 L 360 365 L 16 365 Z M 16 8 " clip-rule="nonzero"/></clipPath><clipPath id="bdd6697ea8"><path d="M -59.320312 -12.871094 L 378.457031 -106.84375 L 481.5625 373.464844 L 43.785156 467.4375 Z M -59.320312 -12.871094 " clip-rule="nonzero"/></clipPath><clipPath id="4978f35564"><path d="M 718.714844 -203.917969 L -449.425781 46.839844 L -326.328125 620.277344 L 841.808594 369.519531 Z M 718.714844 -203.917969 " clip-rule="nonzero"/></clipPath><clipPath id="0d083cc720"><path d="M 12 3 L 364 3 L 364 369 L 12 369 Z M 12 3 " clip-rule="nonzero"/></clipPath><clipPath id="e577dafcb3"><path d="M -59.320312 -12.871094 L 378.457031 -106.84375 L 481.5625 373.464844 L 43.785156 467.4375 Z M -59.320312 -12.871094 " clip-rule="nonzero"/></clipPath><clipPath id="fd0ce0fd5e"><path d="M 718.714844 -203.917969 L -449.425781 46.839844 L -326.328125 620.277344 L 841.808594 369.519531 Z M 718.714844 -203.917969 " clip-rule="nonzero"/></clipPath></defs><g clip-path="url(#faad12f3b2)"><g clip-path="url(#bdd6697ea8)"><g clip-path="url(#4978f35564)"><path fill="#fff6cb" d="M 134.40625 296.457031 C 169.15625 308.285156 231.441406 371.640625 274.421875 363.539062 C 305.398438 357.695312 359.210938 331.601562 359.476562 278.0625 C 359.476562 278.0625 354.324219 196.992188 343.027344 173.671875 C 343.027344 173.671875 328.007812 127.941406 322.398438 115.492188 C 322.398438 115.492188 308.132812 85.378906 317.433594 55.191406 C 321.632812 45.097656 296.945312 28.449219 282.039062 67.746094 C 282.039062 67.746094 274.558594 88.476562 284.582031 135.105469 C 284.582031 135.105469 288.742188 154.351562 279.3125 165.574219 C 279.3125 165.574219 269.824219 187.796875 221.925781 136.375 C 221.925781 136.375 147.859375 33.320312 137.363281 15.703125 C 128.347656 4.355469 97.902344 2.496094 112.617188 35.96875 C 112.617188 35.96875 174.667969 138.003906 176.734375 140.453125 C 184.824219 150.03125 181.878906 169.382812 164.253906 150.464844 L 70.175781 54.644531 C 59.617188 44.476562 34.457031 50.867188 50.195312 74.40625 C 50.195312 74.40625 126.140625 162.726562 138.65625 176.203125 C 148.378906 184.839844 150.210938 206.5625 128.679688 190.488281 L 44.25 130.511719 C 28.0625 118.441406 2.160156 128.984375 26.609375 154.269531 C 26.609375 154.269531 70.894531 191.277344 82.128906 201 C 82.128906 201 123.101562 233.09375 128.707031 238.742188 C 134.316406 244.386719 134.445312 257.867188 119.449219 252.492188 C 104.453125 247.117188 58.957031 239.65625 48.605469 236.632812 C 35.871094 232.914062 17.476562 246.332031 45.714844 261.585938 C 45.714844 261.585938 129.011719 296.125 134.40625 296.457031 Z M 134.40625 296.457031 " fill-opacity="1" fill-rule="evenodd"/></g></g></g><g clip-path="url(#0d083cc720)"><g clip-path="url(#e577dafcb3)"><g clip-path="url(#fd0ce0fd5e)"><path fill="#bc1823" d="M 225.351562 133.566406 C 221.496094 128.199219 151.347656 30.53125 141.160156 13.445312 C 141.140625 13.40625 141.113281 13.371094 141.089844 13.332031 L 140.90625 13.066406 L 140.828125 12.960938 C 136.890625 8.003906 129.636719 4.449219 122.730469 3.9375 C 117.695312 3.566406 112.902344 4.800781 109.480469 7.773438 C 104.289062 12.28125 101.472656 21.597656 108.574219 37.746094 C 108.652344 37.921875 108.742188 38.097656 108.84375 38.261719 C 108.84375 38.261719 171.28125 140.839844 173.363281 143.300781 C 175.542969 145.886719 176.683594 149.414062 176.597656 152.21875 C 176.578125 152.707031 176.546875 153.171875 176.453125 153.585938 C 176.414062 153.765625 176.417969 153.949219 176.324219 154.0625 C 176.257812 154.058594 176.160156 154.042969 176.089844 154.027344 C 175.75 153.949219 175.382812 153.796875 174.964844 153.601562 C 172.9375 152.660156 170.492188 150.675781 167.492188 147.453125 C 167.464844 147.425781 167.441406 147.398438 167.414062 147.371094 L 73.335938 51.550781 L 73.246094 51.464844 C 68.484375 46.878906 61.367188 44.925781 55.109375 45.753906 C 50.613281 46.34375 46.59375 48.351562 43.964844 51.5625 C 39.898438 56.542969 38.617188 65.035156 46.523438 76.859375 C 46.621094 77.007812 46.730469 77.148438 46.847656 77.285156 C 46.847656 77.285156 122.886719 165.714844 135.417969 179.207031 C 135.4375 179.230469 135.460938 179.253906 135.484375 179.277344 L 135.652344 179.441406 L 135.722656 179.503906 C 138.484375 181.960938 140.4375 185.757812 141.019531 189.019531 C 141.15625 189.789062 141.246094 190.527344 141.199219 191.171875 C 141.179688 191.421875 141.164062 191.65625 141.070312 191.84375 C 140.859375 191.832031 140.320312 191.796875 139.925781 191.703125 C 137.765625 191.199219 134.96875 189.667969 131.328125 186.953125 C 131.300781 186.929688 131.269531 186.910156 131.242188 186.890625 C 131.242188 186.890625 62.851562 138.308594 49.207031 128.613281 C 47.84375 127.644531 47.027344 127.066406 46.878906 126.960938 L 46.875 126.957031 C 39.941406 121.796875 31.492188 120.210938 24.898438 121.574219 C 19.777344 122.636719 15.722656 125.441406 13.65625 129.507812 C 10.660156 135.402344 11.648438 145.152344 23.433594 157.339844 C 23.539062 157.453125 23.65625 157.558594 23.773438 157.660156 C 23.773438 157.660156 68.015625 194.628906 79.234375 204.339844 L 79.40625 204.476562 C 79.40625 204.476562 120.015625 236.257812 125.574219 241.851562 C 126.855469 243.144531 127.679688 245.085938 127.777344 246.871094 C 127.8125 247.59375 127.789062 248.308594 127.378906 248.8125 C 127.132812 249.109375 126.714844 249.222656 126.195312 249.285156 C 124.84375 249.441406 123.121094 249.117188 120.945312 248.335938 C 105.890625 242.941406 60.234375 235.429688 49.847656 232.394531 C 44.015625 230.691406 37.25 231.84375 32.65625 234.882812 C 29.035156 237.277344 26.710938 240.78125 26.460938 244.871094 C 26.296875 247.492188 26.980469 250.4375 29.027344 253.558594 C 31.429688 257.214844 35.960938 261.335938 43.617188 265.472656 C 43.75 265.542969 43.886719 265.609375 44.023438 265.664062 C 44.023438 265.664062 97.433594 287.808594 121.5625 296.839844 C 127.261719 298.972656 131.484375 300.359375 133.261719 300.734375 C 153.925781 307.90625 184.21875 333.261719 214.371094 350.660156 C 235.777344 363.007812 257.183594 371.28125 275.246094 367.878906 C 307.664062 361.761719 363.617188 334.113281 363.902344 278.082031 C 363.902344 277.980469 363.898438 277.882812 363.890625 277.78125 C 363.890625 277.78125 358.53125 196.089844 347.144531 172.03125 C 345.921875 168.316406 331.835938 125.671875 326.429688 113.675781 L 326.390625 113.597656 C 326.390625 113.597656 312.894531 85.179688 321.617188 56.636719 C 323.390625 52.039062 321.726562 46.492188 317.363281 42.695312 C 309.414062 35.773438 290.1875 33.816406 277.914062 66.183594 C 277.902344 66.207031 277.898438 66.226562 277.894531 66.238281 C 277.894531 66.238281 269.878906 87.726562 280.261719 136.035156 C 280.261719 136.035156 280.261719 136.039062 280.261719 136.039062 C 280.261719 136.039062 281.609375 142.320312 280.851562 149.542969 C 280.378906 154.03125 279.121094 158.941406 275.933594 162.734375 C 275.675781 163.042969 275.460938 163.382812 275.296875 163.746094 C 275.203125 163.894531 273.617188 166.34375 269.042969 165.867188 C 261.148438 165.042969 247.921875 157.757812 225.351562 133.566406 Z M 116.554688 33.933594 C 114.039062 28.15625 112.972656 23.605469 113.09375 20.066406 C 113.179688 17.492188 113.914062 15.621094 115.273438 14.441406 C 117.011719 12.929688 119.519531 12.558594 122.078125 12.746094 C 126.46875 13.070312 131.152344 15.148438 133.746094 18.257812 C 144.882812 36.722656 218.34375 138.949219 218.34375 138.949219 C 218.363281 138.984375 218.390625 139.015625 218.417969 139.050781 L 218.613281 139.289062 L 218.695312 139.382812 C 238.613281 160.769531 252.257812 169.761719 261.324219 173.023438 C 267.878906 175.382812 272.511719 175 275.695312 173.925781 C 280.21875 172.394531 282.3125 169.320312 283.039062 168.003906 C 287.15625 162.882812 289.011719 156.4375 289.636719 150.460938 C 290.460938 142.632812 289.210938 135.722656 288.953125 134.421875 C 288.945312 134.378906 288.9375 134.335938 288.921875 134.296875 C 288.917969 134.253906 288.914062 134.214844 288.90625 134.175781 C 280.191406 93.648438 284.988281 73.386719 286.039062 69.765625 C 286.117188 69.496094 286.171875 69.332031 286.191406 69.277344 C 290.203125 58.710938 294.828125 52.542969 299.484375 49.484375 C 303.148438 47.078125 306.675781 46.871094 309.371094 48.003906 C 311.226562 48.78125 312.675781 50.132812 313.265625 51.675781 C 313.496094 52.285156 313.597656 52.921875 313.355469 53.5 C 313.34375 53.527344 313.332031 53.558594 313.320312 53.585938 L 313.246094 53.804688 L 313.214844 53.894531 C 304.402344 82.476562 315.636719 111 317.964844 116.386719 C 318.1875 116.910156 318.332031 117.222656 318.375 117.308594 C 323.945312 129.671875 338.832031 175.046875 338.832031 175.046875 C 338.847656 175.089844 338.863281 175.132812 338.878906 175.171875 L 339 175.472656 L 339.054688 175.59375 C 349.882812 197.953125 354.8125 274.269531 355.0625 278.1875 C 354.714844 329.140625 303.121094 353.632812 273.609375 359.199219 C 257.289062 362.273438 238.132812 354.167969 218.792969 343.011719 C 187.960938 325.222656 156.871094 299.441406 135.832031 292.277344 C 135.460938 292.152344 135.074219 292.074219 134.683594 292.050781 C 133.722656 291.992188 130.027344 290.574219 124.664062 288.566406 C 101.515625 279.90625 51.324219 259.128906 47.628906 257.597656 C 42.71875 254.925781 39.382812 252.375 37.339844 249.9375 C 35.929688 248.257812 35.195312 246.78125 35.277344 245.414062 C 35.363281 244.058594 36.335938 243.039062 37.53125 242.246094 C 40.160156 240.511719 44.03125 239.898438 47.367188 240.871094 C 57.679688 243.882812 103.015625 251.292969 117.957031 256.652344 C 126.609375 259.75 131.667969 257.527344 134.226562 254.390625 C 135.953125 252.277344 136.761719 249.445312 136.597656 246.40625 C 136.398438 242.558594 134.605469 238.402344 131.847656 235.628906 C 126.335938 230.082031 86.996094 199.203125 84.941406 197.59375 C 73.996094 188.125 32.773438 153.664062 29.632812 151.042969 C 25.402344 146.640625 22.839844 142.792969 21.671875 139.464844 C 20.824219 137.050781 20.75 135.054688 21.53125 133.507812 C 22.453125 131.699219 24.414062 130.695312 26.691406 130.222656 C 31.175781 129.292969 36.886719 130.53125 41.605469 134.050781 C 41.632812 134.070312 41.660156 134.089844 41.6875 134.109375 C 41.6875 134.109375 110.078125 182.691406 123.722656 192.386719 C 125.089844 193.355469 125.90625 193.933594 126.054688 194.039062 L 126.058594 194.042969 C 132.1875 198.617188 136.828125 200.390625 140.023438 200.636719 C 143.515625 200.90625 145.953125 199.6875 147.609375 197.8125 C 149.609375 195.546875 150.488281 191.785156 149.722656 187.472656 C 148.84375 182.550781 145.917969 176.835938 141.777344 173.074219 C 129.300781 159.597656 57.808594 76.476562 53.730469 71.738281 C 51.3125 68.082031 49.996094 64.984375 49.632812 62.398438 C 49.328125 60.210938 49.742188 58.457031 50.8125 57.148438 C 52.078125 55.597656 54.097656 54.792969 56.265625 54.507812 C 59.984375 54.015625 64.242188 55.082031 67.085938 57.796875 L 161.070312 153.527344 C 166.035156 158.839844 170.121094 161.421875 173.160156 162.355469 C 176.410156 163.355469 178.976562 162.832031 180.925781 161.621094 C 183.546875 159.996094 185.296875 156.707031 185.429688 152.496094 C 185.578125 147.820312 183.757812 141.914062 180.113281 137.605469 C 178.121094 135.242188 119.972656 39.5625 116.554688 33.933594 Z M 286.136719 69.414062 C 286 69.730469 285.820312 69.964844 285.621094 70.136719 C 285.421875 70.308594 285.199219 70.414062 284.980469 70.480469 C 285.480469 70.304688 285.90625 69.929688 286.136719 69.414062 Z M 286.136719 69.414062 " fill-opacity="1" fill-rule="evenodd"/></g></g></g></svg>