<svg xmlns="http://www.w3.org/2000/svg" xmlns:xlink="http://www.w3.org/1999/xlink" width="1440" zoomAndPan="magnify" viewBox="0 0 1080 752.249981" height="1003" preserveAspectRatio="xMidYMid meet" version="1.0"><defs><clipPath id="30428cd269"><path d="M 1001 382 L 1016.664062 382 L 1016.664062 398 L 1001 398 Z M 1001 382 " clip-rule="nonzero"/></clipPath><clipPath id="4bbc255cd6"><path d="M 275 732 L 295 732 L 295 751.5 L 275 751.5 Z M 275 732 " clip-rule="nonzero"/></clipPath><clipPath id="8bd4020082"><path d="M 63.613281 327 L 79 327 L 79 343 L 63.613281 343 Z M 63.613281 327 " clip-rule="nonzero"/></clipPath></defs><path fill="#fff6cb" d="M 219.054688 142.265625 C 219.054688 142.265625 339.449219 227.992188 399.976562 208.855469 C 449.320312 193.269531 403.261719 86.390625 403.261719 86.390625 C 403.261719 86.390625 458.363281 147.234375 550.882812 145.996094 C 643.40625 144.761719 685.957031 49.140625 685.957031 49.140625 C 685.957031 49.140625 644.019531 174.308594 728.507812 194.648438 C 813 214.988281 890.109375 176.15625 890.109375 176.15625 C 890.109375 176.15625 826.632812 231.644531 827.8125 272.347656 C 828.992188 313.050781 833.980469 340.792969 899.363281 350.65625 C 899.363281 350.65625 842.566406 365.507812 846.320312 398.472656 C 850.074219 431.4375 966.59375 456.085938 966.59375 456.085938 C 966.59375 456.085938 812.8125 459.582031 756.0625 506.453125 C 699.308594 553.324219 744.546875 628.917969 783.199219 657.71875 C 783.199219 657.71875 677.113281 594.414062 608.035156 619.074219 C 538.957031 643.734375 521.683594 717.734375 521.683594 717.734375 C 521.683594 717.734375 529.871094 651.960938 513.445312 624.832031 C 497.019531 597.699219 428.808594 738.289062 428.808594 738.289062 C 428.808594 738.289062 458.417969 637.167969 398.382812 615.824219 C 338.347656 594.480469 201.011719 661.046875 201.011719 661.046875 C 201.011719 661.046875 297.230469 587.867188 294.769531 569.753906 C 292.308594 551.640625 264.335938 555.773438 201.011719 579.621094 C 201.011719 579.621094 273.398438 522.074219 247.886719 489.183594 C 222.371094 456.296875 129.460938 441.503906 95.753906 440.679688 C 95.753906 440.679688 207.59375 398.75 225.679688 335.449219 C 243.765625 272.144531 186.214844 240.070312 186.214844 240.070312 C 186.214844 240.070312 256.117188 253.230469 265.984375 236.789062 C 275.851562 220.34375 251.125 176.792969 219.054688 142.265625 Z M 219.054688 142.265625 " fill-opacity="1" fill-rule="nonzero"/><path fill="#363636" d="M 213.296875 126.648438 C 213.296875 126.648438 333.691406 212.371094 394.21875 193.234375 C 443.5625 177.648438 397.503906 70.769531 397.503906 70.769531 C 397.503906 70.769531 452.605469 131.613281 545.125 130.378906 C 637.648438 129.140625 680.199219 33.574219 680.199219 33.574219 C 680.199219 33.574219 638.261719 158.710938 722.773438 179.050781 C 807.289062 199.390625 884.375 160.558594 884.375 160.558594 C 884.375 160.558594 820.898438 216.046875 822.078125 256.75 C 823.257812 297.453125 828.246094 325.183594 893.628906 335.058594 C 893.628906 335.058594 836.886719 349.910156 840.585938 382.875 C 844.28125 415.839844 960.859375 440.488281 960.859375 440.488281 C 960.859375 440.488281 807.078125 443.984375 750.382812 490.84375 C 693.6875 537.703125 738.867188 613.308594 777.519531 642.121094 C 777.519531 642.121094 671.433594 578.816406 602.355469 603.476562 C 533.277344 628.136719 516.003906 702.140625 516.003906 702.140625 C 516.003906 702.140625 524.203125 636.363281 507.765625 609.234375 C 491.328125 582.101562 423.128906 722.691406 423.128906 722.691406 C 423.128906 722.691406 452.726562 621.570312 392.691406 600.226562 C 332.65625 578.882812 195.324219 645.449219 195.324219 645.449219 C 195.324219 645.449219 291.539062 572.269531 289.078125 554.15625 C 286.617188 536.042969 258.644531 540.175781 195.324219 564.023438 C 195.324219 564.023438 267.710938 506.476562 242.195312 473.585938 C 216.683594 440.699219 123.636719 425.90625 89.9375 425.082031 C 89.9375 425.082031 201.78125 383.152344 219.878906 319.839844 C 237.976562 256.527344 180.433594 224.472656 180.433594 224.472656 C 180.433594 224.472656 250.335938 237.632812 260.203125 221.191406 C 270.070312 204.746094 245.371094 161.171875 213.296875 126.648438 Z M 213.296875 126.648438 " fill-opacity="1" fill-rule="nonzero"/><path fill="#363636" d="M 992.273438 327.34375 C 992.273438 327.972656 992.210938 328.59375 992.089844 329.207031 C 991.964844 329.824219 991.785156 330.421875 991.542969 331 C 991.300781 331.582031 991.007812 332.132812 990.660156 332.652344 C 990.308594 333.175781 989.914062 333.660156 989.46875 334.101562 C 989.023438 334.546875 988.542969 334.941406 988.019531 335.292969 C 987.496094 335.640625 986.945312 335.933594 986.367188 336.175781 C 985.785156 336.417969 985.1875 336.597656 984.574219 336.722656 C 983.957031 336.84375 983.335938 336.90625 982.707031 336.90625 C 977.429688 336.90625 899.753906 339.992188 899.753906 339.992188 C 899.753906 339.992188 977.429688 317.792969 982.707031 317.792969 C 983.335938 317.792969 983.957031 317.851562 984.574219 317.976562 C 985.1875 318.097656 985.785156 318.277344 986.367188 318.519531 C 986.945312 318.757812 987.496094 319.050781 988.019531 319.402344 C 988.539062 319.75 989.023438 320.144531 989.46875 320.589844 C 989.914062 321.03125 990.308594 321.515625 990.65625 322.035156 C 991.007812 322.558594 991.300781 323.109375 991.542969 323.6875 C 991.785156 324.265625 991.964844 324.863281 992.089844 325.480469 C 992.210938 326.09375 992.273438 326.714844 992.273438 327.34375 Z M 992.273438 327.34375 " fill-opacity="1" fill-rule="nonzero"/><g clip-path="url(#30428cd269)"><path fill="#363636" d="M 1016.664062 390.269531 C 1016.664062 390.753906 1016.613281 391.234375 1016.519531 391.710938 C 1016.425781 392.1875 1016.285156 392.652344 1016.097656 393.101562 C 1015.914062 393.550781 1015.683594 393.976562 1015.414062 394.382812 C 1015.144531 394.785156 1014.835938 395.160156 1014.492188 395.503906 C 1014.148438 395.847656 1013.777344 396.152344 1013.371094 396.421875 C 1012.96875 396.695312 1012.539062 396.921875 1012.089844 397.109375 C 1011.640625 397.292969 1011.179688 397.433594 1010.703125 397.527344 C 1010.226562 397.625 1009.742188 397.671875 1009.257812 397.671875 C 1008.769531 397.671875 1008.289062 397.625 1007.8125 397.527344 C 1007.335938 397.433594 1006.871094 397.292969 1006.421875 397.109375 C 1005.972656 396.921875 1005.546875 396.695312 1005.140625 396.421875 C 1004.738281 396.152344 1004.363281 395.847656 1004.019531 395.503906 C 1003.675781 395.160156 1003.371094 394.785156 1003.097656 394.382812 C 1002.828125 393.976562 1002.601562 393.550781 1002.414062 393.101562 C 1002.230469 392.652344 1002.089844 392.1875 1001.992188 391.710938 C 1001.898438 391.234375 1001.851562 390.753906 1001.851562 390.269531 C 1001.851562 389.78125 1001.898438 389.300781 1001.992188 388.824219 C 1002.089844 388.347656 1002.230469 387.882812 1002.414062 387.433594 C 1002.601562 386.984375 1002.828125 386.558594 1003.097656 386.15625 C 1003.371094 385.75 1003.675781 385.375 1004.019531 385.03125 C 1004.363281 384.6875 1004.738281 384.382812 1005.140625 384.113281 C 1005.546875 383.84375 1005.972656 383.613281 1006.421875 383.429688 C 1006.871094 383.242188 1007.335938 383.101562 1007.8125 383.007812 C 1008.289062 382.910156 1008.769531 382.863281 1009.257812 382.863281 C 1009.742188 382.863281 1010.226562 382.910156 1010.703125 383.007812 C 1011.179688 383.101562 1011.640625 383.242188 1012.089844 383.429688 C 1012.539062 383.613281 1012.96875 383.84375 1013.371094 384.113281 C 1013.777344 384.382812 1014.148438 384.6875 1014.492188 385.03125 C 1014.835938 385.375 1015.144531 385.75 1015.414062 386.15625 C 1015.683594 386.558594 1015.914062 386.984375 1016.097656 387.433594 C 1016.285156 387.882812 1016.425781 388.347656 1016.519531 388.824219 C 1016.613281 389.300781 1016.664062 389.78125 1016.664062 390.269531 Z M 1016.664062 390.269531 " fill-opacity="1" fill-rule="nonzero"/></g><path fill="#363636" d="M 861.734375 506.675781 C 861.734375 507.203125 861.683594 507.722656 861.578125 508.238281 C 861.476562 508.753906 861.324219 509.257812 861.125 509.742188 C 860.921875 510.230469 860.675781 510.691406 860.382812 511.128906 C 860.089844 511.566406 859.757812 511.972656 859.386719 512.34375 C 859.011719 512.714844 858.609375 513.046875 858.171875 513.339844 C 857.730469 513.632812 857.269531 513.878906 856.785156 514.082031 C 856.296875 514.28125 855.796875 514.433594 855.28125 514.535156 C 854.761719 514.640625 854.242188 514.691406 853.714844 514.691406 C 853.1875 514.691406 852.667969 514.640625 852.152344 514.535156 C 851.632812 514.433594 851.132812 514.28125 850.648438 514.082031 C 850.160156 513.878906 849.699219 513.632812 849.261719 513.339844 C 848.824219 513.046875 848.417969 512.714844 848.046875 512.34375 C 847.671875 511.972656 847.339844 511.566406 847.046875 511.128906 C 846.757812 510.691406 846.507812 510.230469 846.308594 509.742188 C 846.105469 509.257812 845.953125 508.753906 845.851562 508.238281 C 845.75 507.722656 845.695312 507.203125 845.695312 506.675781 C 845.695312 506.148438 845.75 505.628906 845.851562 505.113281 C 845.953125 504.59375 846.105469 504.09375 846.308594 503.609375 C 846.507812 503.121094 846.753906 502.660156 847.046875 502.222656 C 847.339844 501.785156 847.671875 501.378906 848.046875 501.007812 C 848.417969 500.636719 848.824219 500.300781 849.261719 500.011719 C 849.699219 499.71875 850.160156 499.472656 850.648438 499.269531 C 851.132812 499.066406 851.632812 498.917969 852.152344 498.8125 C 852.667969 498.710938 853.1875 498.660156 853.714844 498.660156 C 854.242188 498.660156 854.761719 498.710938 855.28125 498.8125 C 855.796875 498.917969 856.296875 499.066406 856.785156 499.269531 C 857.269531 499.472656 857.730469 499.71875 858.171875 500.011719 C 858.609375 500.300781 859.011719 500.636719 859.386719 501.007812 C 859.757812 501.378906 860.089844 501.785156 860.382812 502.222656 C 860.675781 502.660156 860.921875 503.121094 861.125 503.609375 C 861.324219 504.09375 861.476562 504.59375 861.578125 505.113281 C 861.683594 505.628906 861.734375 506.148438 861.734375 506.675781 Z M 861.734375 506.675781 " fill-opacity="1" fill-rule="nonzero"/><path fill="#363636" d="M 936.371094 628.046875 C 936.371094 628.527344 936.324219 629 936.230469 629.46875 C 936.136719 629.941406 935.996094 630.394531 935.8125 630.839844 C 935.628906 631.28125 935.40625 631.703125 935.140625 632.097656 C 934.875 632.496094 934.570312 632.867188 934.234375 633.203125 C 933.894531 633.542969 933.527344 633.84375 933.128906 634.109375 C 932.730469 634.378906 932.308594 634.601562 931.867188 634.785156 C 931.425781 634.96875 930.96875 635.105469 930.5 635.199219 C 930.027344 635.292969 929.554688 635.339844 929.074219 635.339844 C 928.597656 635.339844 928.121094 635.292969 927.652344 635.199219 C 927.183594 635.105469 926.726562 634.96875 926.285156 634.785156 C 925.839844 634.601562 925.421875 634.378906 925.023438 634.109375 C 924.625 633.84375 924.253906 633.542969 923.917969 633.203125 C 923.578125 632.867188 923.277344 632.496094 923.011719 632.097656 C 922.742188 631.703125 922.519531 631.28125 922.335938 630.839844 C 922.152344 630.394531 922.015625 629.941406 921.921875 629.472656 C 921.828125 629 921.78125 628.527344 921.78125 628.046875 C 921.78125 627.570312 921.828125 627.09375 921.921875 626.625 C 922.015625 626.15625 922.152344 625.699219 922.335938 625.257812 C 922.519531 624.816406 922.742188 624.394531 923.011719 623.996094 C 923.277344 623.597656 923.578125 623.230469 923.917969 622.890625 C 924.253906 622.554688 924.625 622.25 925.023438 621.984375 C 925.421875 621.71875 925.839844 621.496094 926.285156 621.3125 C 926.726562 621.128906 927.183594 620.988281 927.652344 620.894531 C 928.121094 620.800781 928.597656 620.757812 929.074219 620.757812 C 929.554688 620.757812 930.027344 620.800781 930.5 620.894531 C 930.96875 620.988281 931.425781 621.128906 931.867188 621.3125 C 932.308594 621.496094 932.730469 621.71875 933.128906 621.984375 C 933.527344 622.25 933.894531 622.554688 934.234375 622.890625 C 934.570312 623.230469 934.875 623.597656 935.140625 623.996094 C 935.40625 624.394531 935.628906 624.816406 935.8125 625.257812 C 935.996094 625.699219 936.136719 626.15625 936.230469 626.625 C 936.324219 627.09375 936.371094 627.570312 936.371094 628.046875 Z M 936.371094 628.046875 " fill-opacity="1" fill-rule="nonzero"/><path fill="#363636" d="M 841.410156 643.601562 C 841.007812 644.078125 840.566406 644.511719 840.078125 644.898438 C 839.589844 645.289062 839.070312 645.625 838.519531 645.914062 C 837.964844 646.199219 837.386719 646.425781 836.789062 646.601562 C 836.191406 646.773438 835.582031 646.882812 834.960938 646.9375 C 834.339844 646.988281 833.71875 646.976562 833.097656 646.90625 C 832.480469 646.835938 831.875 646.707031 831.28125 646.515625 C 830.6875 646.324219 830.117188 646.078125 829.574219 645.773438 C 829.03125 645.472656 828.519531 645.117188 828.046875 644.714844 C 824.058594 641.375 769.191406 583.75 769.191406 583.75 C 769.191406 583.75 836.363281 626.914062 840.296875 630.273438 C 840.769531 630.675781 841.203125 631.117188 841.589844 631.605469 C 841.976562 632.089844 842.3125 632.609375 842.597656 633.160156 C 842.878906 633.710938 843.109375 634.285156 843.28125 634.882812 C 843.453125 635.480469 843.5625 636.089844 843.617188 636.707031 C 843.667969 637.324219 843.65625 637.945312 843.585938 638.5625 C 843.515625 639.179688 843.386719 639.78125 843.199219 640.375 C 843.007812 640.964844 842.765625 641.53125 842.464844 642.074219 C 842.164062 642.617188 841.8125 643.128906 841.410156 643.601562 Z M 841.410156 643.601562 " fill-opacity="1" fill-rule="nonzero"/><path fill="#363636" d="M 781.140625 726.1875 C 781.140625 726.660156 781.09375 727.125 781 727.589844 C 780.910156 728.050781 780.773438 728.503906 780.59375 728.9375 C 780.410156 729.375 780.191406 729.789062 779.925781 730.183594 C 779.664062 730.574219 779.367188 730.9375 779.03125 731.273438 C 778.699219 731.605469 778.335938 731.902344 777.941406 732.164062 C 777.550781 732.429688 777.136719 732.648438 776.699219 732.832031 C 776.261719 733.011719 775.8125 733.148438 775.347656 733.238281 C 774.886719 733.332031 774.417969 733.378906 773.945312 733.378906 C 773.472656 733.378906 773.003906 733.332031 772.542969 733.238281 C 772.078125 733.148438 771.628906 733.011719 771.191406 732.832031 C 770.757812 732.648438 770.339844 732.429688 769.949219 732.164062 C 769.554688 731.902344 769.191406 731.605469 768.859375 731.273438 C 768.523438 730.9375 768.226562 730.574219 767.964844 730.183594 C 767.703125 729.789062 767.480469 729.375 767.300781 728.9375 C 767.117188 728.503906 766.980469 728.050781 766.890625 727.589844 C 766.796875 727.125 766.75 726.660156 766.75 726.1875 C 766.75 725.714844 766.796875 725.246094 766.890625 724.78125 C 766.980469 724.320312 767.117188 723.871094 767.300781 723.433594 C 767.480469 722.996094 767.703125 722.582031 767.964844 722.191406 C 768.226562 721.796875 768.523438 721.433594 768.859375 721.101562 C 769.191406 720.765625 769.554688 720.46875 769.949219 720.207031 C 770.339844 719.945312 770.757812 719.722656 771.191406 719.542969 C 771.628906 719.359375 772.078125 719.222656 772.542969 719.132812 C 773.003906 719.039062 773.472656 718.996094 773.945312 718.996094 C 774.417969 718.996094 774.886719 719.039062 775.347656 719.132812 C 775.8125 719.222656 776.261719 719.359375 776.699219 719.542969 C 777.136719 719.722656 777.550781 719.945312 777.941406 720.207031 C 778.335938 720.46875 778.699219 720.765625 779.03125 721.101562 C 779.367188 721.433594 779.664062 721.796875 779.925781 722.191406 C 780.191406 722.582031 780.410156 722.996094 780.59375 723.433594 C 780.773438 723.871094 780.910156 724.320312 781 724.78125 C 781.09375 725.246094 781.140625 725.714844 781.140625 726.1875 Z M 781.140625 726.1875 " fill-opacity="1" fill-rule="nonzero"/><path fill="#363636" d="M 728.453125 707.316406 C 728.113281 707.582031 727.75 707.8125 727.367188 708.007812 C 726.980469 708.203125 726.582031 708.359375 726.164062 708.476562 C 725.75 708.59375 725.324219 708.667969 724.894531 708.699219 C 724.464844 708.734375 724.035156 708.722656 723.605469 708.671875 C 723.179688 708.621094 722.757812 708.527344 722.347656 708.394531 C 721.9375 708.257812 721.542969 708.085938 721.167969 707.875 C 720.792969 707.660156 720.441406 707.414062 720.113281 707.132812 C 719.785156 706.851562 719.488281 706.542969 719.222656 706.203125 C 716.996094 703.339844 684.519531 648.710938 684.519531 648.710938 C 684.519531 648.710938 727.339844 695.269531 729.578125 698.085938 C 729.84375 698.425781 730.074219 698.789062 730.269531 699.175781 C 730.464844 699.558594 730.621094 699.960938 730.738281 700.375 C 730.851562 700.792969 730.925781 701.214844 730.960938 701.644531 C 730.992188 702.074219 730.984375 702.503906 730.929688 702.933594 C 730.878906 703.363281 730.785156 703.78125 730.648438 704.191406 C 730.515625 704.601562 730.339844 704.996094 730.128906 705.371094 C 729.914062 705.746094 729.667969 706.097656 729.386719 706.425781 C 729.105469 706.753906 728.792969 707.050781 728.453125 707.316406 Z M 728.453125 707.316406 " fill-opacity="1" fill-rule="nonzero"/><path fill="#363636" d="M 592.410156 688.980469 C 592.410156 689.492188 592.363281 690 592.261719 690.503906 C 592.160156 691.007812 592.011719 691.496094 591.816406 691.96875 C 591.621094 692.445312 591.378906 692.894531 591.09375 693.320312 C 590.808594 693.746094 590.484375 694.144531 590.121094 694.503906 C 589.757812 694.867188 589.363281 695.191406 588.9375 695.476562 C 588.511719 695.761719 588.058594 696.003906 587.585938 696.199219 C 587.113281 696.394531 586.621094 696.542969 586.117188 696.644531 C 585.617188 696.746094 585.105469 696.792969 584.59375 696.792969 C 584.082031 696.792969 583.570312 696.746094 583.070312 696.644531 C 582.566406 696.542969 582.078125 696.394531 581.601562 696.199219 C 581.128906 696.003906 580.675781 695.761719 580.25 695.476562 C 579.824219 695.191406 579.429688 694.867188 579.066406 694.503906 C 578.703125 694.144531 578.378906 693.746094 578.09375 693.320312 C 577.808594 692.894531 577.566406 692.445312 577.371094 691.96875 C 577.175781 691.496094 577.027344 691.007812 576.925781 690.503906 C 576.828125 690 576.777344 689.492188 576.777344 688.980469 C 576.777344 688.464844 576.828125 687.957031 576.925781 687.453125 C 577.027344 686.953125 577.175781 686.460938 577.371094 685.988281 C 577.566406 685.515625 577.808594 685.0625 578.09375 684.636719 C 578.378906 684.210938 578.703125 683.816406 579.066406 683.453125 C 579.429688 683.089844 579.824219 682.765625 580.25 682.480469 C 580.675781 682.195312 581.128906 681.957031 581.601562 681.757812 C 582.078125 681.5625 582.566406 681.414062 583.070312 681.3125 C 583.570312 681.214844 584.082031 681.164062 584.59375 681.164062 C 585.105469 681.164062 585.617188 681.214844 586.117188 681.3125 C 586.621094 681.414062 587.113281 681.5625 587.585938 681.757812 C 588.058594 681.957031 588.511719 682.195312 588.9375 682.480469 C 589.363281 682.765625 589.757812 683.089844 590.121094 683.453125 C 590.484375 683.816406 590.808594 684.210938 591.09375 684.636719 C 591.378906 685.0625 591.621094 685.515625 591.816406 685.988281 C 592.011719 686.460938 592.160156 686.953125 592.261719 687.453125 C 592.363281 687.957031 592.410156 688.464844 592.410156 688.980469 Z M 592.410156 688.980469 " fill-opacity="1" fill-rule="nonzero"/><path fill="#363636" d="M 369.105469 703.507812 C 368.855469 704.046875 368.550781 704.554688 368.199219 705.03125 C 367.847656 705.511719 367.453125 705.949219 367.015625 706.351562 C 366.574219 706.75 366.101562 707.105469 365.59375 707.410156 C 365.085938 707.71875 364.550781 707.972656 363.992188 708.175781 C 363.433594 708.378906 362.863281 708.523438 362.273438 708.613281 C 361.6875 708.703125 361.097656 708.734375 360.503906 708.707031 C 359.910156 708.679688 359.328125 708.59375 358.75 708.453125 C 358.171875 708.308594 357.617188 708.113281 357.078125 707.859375 C 356.539062 707.609375 356.03125 707.308594 355.554688 706.957031 C 355.074219 706.605469 354.636719 706.207031 354.234375 705.769531 C 353.835938 705.332031 353.480469 704.859375 353.175781 704.351562 C 352.867188 703.84375 352.613281 703.308594 352.410156 702.75 C 352.207031 702.191406 352.0625 701.621094 351.972656 701.03125 C 351.882812 700.445312 351.851562 699.855469 351.878906 699.261719 C 351.90625 698.667969 351.992188 698.085938 352.132812 697.507812 C 352.273438 696.933594 352.472656 696.375 352.722656 695.835938 C 354.839844 691.304688 397.503906 634.726562 397.503906 634.726562 C 397.503906 634.726562 371.222656 698.988281 369.105469 703.507812 Z M 369.105469 703.507812 " fill-opacity="1" fill-rule="nonzero"/><g clip-path="url(#4bbc255cd6)"><path fill="#363636" d="M 294.300781 742.21875 C 294.300781 742.824219 294.242188 743.425781 294.125 744.023438 C 294.007812 744.617188 293.832031 745.195312 293.597656 745.757812 C 293.367188 746.320312 293.082031 746.851562 292.742188 747.359375 C 292.40625 747.863281 292.023438 748.328125 291.59375 748.757812 C 291.164062 749.1875 290.695312 749.574219 290.191406 749.910156 C 289.683594 750.246094 289.152344 750.53125 288.589844 750.765625 C 288.027344 750.996094 287.449219 751.171875 286.855469 751.292969 C 286.257812 751.410156 285.65625 751.46875 285.046875 751.46875 C 284.441406 751.46875 283.839844 751.410156 283.242188 751.292969 C 282.648438 751.171875 282.066406 750.996094 281.507812 750.765625 C 280.945312 750.53125 280.410156 750.246094 279.90625 749.910156 C 279.402344 749.574219 278.933594 749.1875 278.503906 748.757812 C 278.074219 748.328125 277.691406 747.863281 277.351562 747.359375 C 277.015625 746.851562 276.730469 746.320312 276.5 745.757812 C 276.265625 745.195312 276.089844 744.617188 275.972656 744.023438 C 275.851562 743.425781 275.792969 742.824219 275.792969 742.21875 C 275.792969 741.609375 275.851562 741.007812 275.972656 740.414062 C 276.089844 739.816406 276.265625 739.238281 276.5 738.675781 C 276.730469 738.117188 277.015625 737.582031 277.355469 737.078125 C 277.691406 736.574219 278.074219 736.105469 278.503906 735.675781 C 278.933594 735.246094 279.402344 734.863281 279.90625 734.523438 C 280.410156 734.1875 280.945312 733.902344 281.507812 733.671875 C 282.066406 733.4375 282.648438 733.261719 283.242188 733.144531 C 283.839844 733.027344 284.441406 732.964844 285.046875 732.964844 C 285.65625 732.964844 286.257812 733.027344 286.855469 733.144531 C 287.449219 733.261719 288.027344 733.4375 288.589844 733.671875 C 289.152344 733.902344 289.683594 734.1875 290.191406 734.523438 C 290.695312 734.863281 291.164062 735.246094 291.59375 735.675781 C 292.023438 736.105469 292.40625 736.574219 292.742188 737.078125 C 293.082031 737.582031 293.367188 738.117188 293.597656 738.675781 C 293.832031 739.238281 294.007812 739.816406 294.125 740.414062 C 294.242188 741.007812 294.300781 741.609375 294.300781 742.21875 Z M 294.300781 742.21875 " fill-opacity="1" fill-rule="nonzero"/></g><path fill="#363636" d="M 109.261719 569.367188 C 109.261719 569.90625 109.207031 570.4375 109.101562 570.96875 C 108.996094 571.496094 108.839844 572.011719 108.636719 572.507812 C 108.429688 573.007812 108.175781 573.480469 107.875 573.929688 C 107.574219 574.378906 107.234375 574.792969 106.855469 575.175781 C 106.472656 575.558594 106.058594 575.898438 105.609375 576.195312 C 105.160156 576.496094 104.6875 576.75 104.1875 576.957031 C 103.6875 577.164062 103.175781 577.320312 102.644531 577.425781 C 102.117188 577.527344 101.582031 577.582031 101.042969 577.582031 C 100.503906 577.582031 99.96875 577.527344 99.4375 577.425781 C 98.910156 577.320312 98.394531 577.164062 97.898438 576.957031 C 97.398438 576.75 96.925781 576.496094 96.476562 576.195312 C 96.027344 575.898438 95.613281 575.558594 95.230469 575.175781 C 94.847656 574.792969 94.507812 574.378906 94.207031 573.929688 C 93.910156 573.480469 93.65625 573.007812 93.449219 572.507812 C 93.242188 572.011719 93.085938 571.496094 92.980469 570.96875 C 92.875 570.4375 92.824219 569.90625 92.824219 569.367188 C 92.824219 568.828125 92.875 568.292969 92.980469 567.761719 C 93.085938 567.234375 93.242188 566.71875 93.449219 566.222656 C 93.65625 565.722656 93.910156 565.25 94.207031 564.800781 C 94.507812 564.351562 94.847656 563.9375 95.230469 563.554688 C 95.613281 563.175781 96.027344 562.832031 96.476562 562.535156 C 96.925781 562.234375 97.398438 561.980469 97.898438 561.773438 C 98.394531 561.566406 98.910156 561.414062 99.4375 561.308594 C 99.96875 561.203125 100.503906 561.148438 101.042969 561.148438 C 101.582031 561.148438 102.117188 561.203125 102.644531 561.308594 C 103.175781 561.414062 103.6875 561.566406 104.1875 561.773438 C 104.6875 561.980469 105.160156 562.234375 105.609375 562.535156 C 106.058594 562.832031 106.472656 563.175781 106.855469 563.554688 C 107.234375 563.9375 107.574219 564.351562 107.875 564.800781 C 108.175781 565.25 108.429688 565.722656 108.636719 566.222656 C 108.839844 566.71875 108.996094 567.234375 109.101562 567.761719 C 109.207031 568.292969 109.261719 568.828125 109.261719 569.367188 Z M 109.261719 569.367188 " fill-opacity="1" fill-rule="nonzero"/><path fill="#363636" d="M 139.953125 506.007812 C 139.492188 506.273438 139.007812 506.492188 138.503906 506.664062 C 137.996094 506.835938 137.480469 506.957031 136.953125 507.027344 C 136.421875 507.097656 135.894531 507.113281 135.359375 507.078125 C 134.828125 507.046875 134.304688 506.960938 133.789062 506.820312 C 133.273438 506.683594 132.777344 506.496094 132.296875 506.261719 C 131.820312 506.027344 131.371094 505.746094 130.945312 505.421875 C 130.523438 505.097656 130.136719 504.734375 129.785156 504.332031 C 129.429688 503.933594 129.121094 503.503906 128.855469 503.039062 C 128.589844 502.578125 128.367188 502.09375 128.199219 501.589844 C 128.027344 501.085938 127.90625 500.570312 127.835938 500.039062 C 127.765625 499.511719 127.746094 498.980469 127.78125 498.449219 C 127.816406 497.917969 127.902344 497.394531 128.039062 496.878906 C 128.179688 496.363281 128.367188 495.867188 128.601562 495.390625 C 128.835938 494.910156 129.117188 494.460938 129.441406 494.035156 C 129.765625 493.613281 130.128906 493.226562 130.527344 492.875 C 130.929688 492.523438 131.359375 492.214844 131.824219 491.945312 C 135.710938 489.71875 189.03125 476.058594 189.03125 476.058594 C 189.03125 476.058594 143.828125 503.78125 139.953125 506.007812 Z M 139.953125 506.007812 " fill-opacity="1" fill-rule="nonzero"/><g clip-path="url(#8bd4020082)"><path fill="#363636" d="M 78.835938 334.847656 C 78.835938 335.347656 78.789062 335.839844 78.691406 336.332031 C 78.59375 336.820312 78.449219 337.296875 78.257812 337.757812 C 78.066406 338.21875 77.832031 338.65625 77.554688 339.070312 C 77.277344 339.488281 76.960938 339.871094 76.609375 340.222656 C 76.253906 340.578125 75.871094 340.890625 75.457031 341.167969 C 75.039062 341.445312 74.601562 341.679688 74.140625 341.871094 C 73.679688 342.0625 73.203125 342.207031 72.714844 342.304688 C 72.222656 342.402344 71.730469 342.453125 71.230469 342.453125 C 70.730469 342.453125 70.234375 342.402344 69.746094 342.304688 C 69.257812 342.207031 68.78125 342.0625 68.320312 341.871094 C 67.859375 341.679688 67.417969 341.445312 67.003906 341.167969 C 66.589844 340.890625 66.203125 340.578125 65.851562 340.222656 C 65.5 339.871094 65.183594 339.488281 64.90625 339.070312 C 64.628906 338.65625 64.394531 338.21875 64.203125 337.757812 C 64.011719 337.296875 63.867188 336.820312 63.769531 336.332031 C 63.671875 335.839844 63.625 335.347656 63.625 334.847656 C 63.625 334.347656 63.671875 333.855469 63.769531 333.363281 C 63.867188 332.875 64.011719 332.398438 64.203125 331.9375 C 64.394531 331.476562 64.628906 331.039062 64.90625 330.621094 C 65.183594 330.207031 65.5 329.824219 65.851562 329.46875 C 66.203125 329.117188 66.589844 328.800781 67.003906 328.523438 C 67.417969 328.246094 67.859375 328.011719 68.320312 327.824219 C 68.78125 327.632812 69.257812 327.488281 69.746094 327.390625 C 70.234375 327.292969 70.730469 327.242188 71.230469 327.242188 C 71.730469 327.242188 72.222656 327.292969 72.714844 327.390625 C 73.203125 327.488281 73.679688 327.632812 74.140625 327.824219 C 74.601562 328.011719 75.039062 328.246094 75.457031 328.523438 C 75.871094 328.800781 76.253906 329.117188 76.609375 329.46875 C 76.960938 329.824219 77.277344 330.207031 77.554688 330.621094 C 77.832031 331.039062 78.066406 331.476562 78.257812 331.9375 C 78.449219 332.398438 78.59375 332.875 78.691406 333.363281 C 78.789062 333.855469 78.835938 334.347656 78.835938 334.847656 Z M 78.835938 334.847656 " fill-opacity="1" fill-rule="nonzero"/></g><path fill="#363636" d="M 154.085938 250.371094 C 154.085938 250.828125 154.039062 251.285156 153.949219 251.734375 C 153.859375 252.183594 153.726562 252.621094 153.550781 253.046875 C 153.375 253.46875 153.160156 253.871094 152.90625 254.253906 C 152.652344 254.636719 152.359375 254.988281 152.035156 255.3125 C 151.710938 255.636719 151.359375 255.929688 150.976562 256.183594 C 150.59375 256.4375 150.191406 256.652344 149.765625 256.828125 C 149.34375 257.003906 148.90625 257.136719 148.457031 257.226562 C 148.003906 257.316406 147.550781 257.359375 147.089844 257.359375 C 146.632812 257.359375 146.175781 257.316406 145.726562 257.226562 C 145.277344 257.136719 144.839844 257.003906 144.414062 256.828125 C 143.992188 256.652344 143.585938 256.4375 143.207031 256.183594 C 142.824219 255.929688 142.46875 255.636719 142.144531 255.3125 C 141.820312 254.988281 141.53125 254.636719 141.277344 254.253906 C 141.019531 253.871094 140.804688 253.46875 140.628906 253.046875 C 140.453125 252.621094 140.320312 252.183594 140.230469 251.734375 C 140.140625 251.285156 140.097656 250.828125 140.097656 250.371094 C 140.097656 249.910156 140.140625 249.457031 140.230469 249.003906 C 140.320312 248.554688 140.453125 248.117188 140.628906 247.695312 C 140.804688 247.269531 141.019531 246.867188 141.277344 246.484375 C 141.53125 246.105469 141.820312 245.75 142.144531 245.425781 C 142.46875 245.101562 142.824219 244.8125 143.207031 244.554688 C 143.585938 244.300781 143.992188 244.085938 144.414062 243.910156 C 144.839844 243.734375 145.277344 243.601562 145.726562 243.511719 C 146.175781 243.421875 146.632812 243.378906 147.089844 243.378906 C 147.550781 243.378906 148.003906 243.421875 148.457031 243.511719 C 148.90625 243.601562 149.34375 243.734375 149.765625 243.910156 C 150.191406 244.085938 150.59375 244.300781 150.976562 244.554688 C 151.359375 244.8125 151.710938 245.101562 152.035156 245.425781 C 152.359375 245.75 152.652344 246.105469 152.90625 246.484375 C 153.160156 246.867188 153.375 247.269531 153.550781 247.695312 C 153.726562 248.117188 153.859375 248.554688 153.949219 249.003906 C 154.039062 249.457031 154.085938 249.910156 154.085938 250.371094 Z M 154.085938 250.371094 " fill-opacity="1" fill-rule="nonzero"/><path fill="#363636" d="M 239.613281 194.882812 C 239.613281 194.882812 148.449219 151.664062 142.78125 147.589844 C 142.109375 147.105469 141.488281 146.558594 140.921875 145.949219 C 140.355469 145.34375 139.855469 144.6875 139.417969 143.980469 C 138.984375 143.273438 138.621094 142.53125 138.328125 141.753906 C 138.039062 140.976562 137.828125 140.179688 137.695312 139.359375 C 137.5625 138.539062 137.511719 137.714844 137.539062 136.886719 C 137.570312 136.054688 137.679688 135.238281 137.871094 134.429688 C 138.0625 133.621094 138.328125 132.839844 138.671875 132.085938 C 139.019531 131.332031 139.433594 130.617188 139.917969 129.941406 C 140.40625 129.269531 140.953125 128.648438 141.558594 128.085938 C 142.167969 127.519531 142.824219 127.019531 143.53125 126.582031 C 144.234375 126.144531 144.976562 125.78125 145.757812 125.492188 C 146.535156 125.203125 147.332031 124.992188 148.152344 124.859375 C 148.972656 124.726562 149.796875 124.671875 150.625 124.703125 C 151.457031 124.734375 152.273438 124.84375 153.082031 125.035156 C 153.890625 125.222656 154.671875 125.492188 155.425781 125.835938 C 156.183594 126.179688 156.898438 126.597656 157.570312 127.082031 C 163.238281 131.15625 239.613281 194.882812 239.613281 194.882812 Z M 239.613281 194.882812 " fill-opacity="1" fill-rule="nonzero"/><path fill="#363636" d="M 212.472656 94.996094 C 212.472656 95.429688 212.429688 95.855469 212.347656 96.28125 C 212.261719 96.703125 212.136719 97.113281 211.972656 97.515625 C 211.804688 97.914062 211.601562 98.292969 211.363281 98.652344 C 211.125 99.011719 210.851562 99.34375 210.542969 99.648438 C 210.238281 99.953125 209.90625 100.226562 209.546875 100.46875 C 209.1875 100.707031 208.808594 100.910156 208.410156 101.074219 C 208.011719 101.242188 207.597656 101.367188 207.175781 101.449219 C 206.75 101.535156 206.324219 101.574219 205.890625 101.574219 C 205.457031 101.574219 205.03125 101.535156 204.605469 101.449219 C 204.183594 101.367188 203.773438 101.242188 203.371094 101.074219 C 202.972656 100.910156 202.59375 100.707031 202.234375 100.46875 C 201.875 100.226562 201.542969 99.953125 201.238281 99.648438 C 200.929688 99.34375 200.660156 99.011719 200.417969 98.652344 C 200.179688 98.292969 199.976562 97.914062 199.808594 97.515625 C 199.644531 97.113281 199.519531 96.703125 199.4375 96.28125 C 199.351562 95.855469 199.308594 95.429688 199.308594 94.996094 C 199.308594 94.5625 199.351562 94.136719 199.4375 93.710938 C 199.519531 93.289062 199.644531 92.878906 199.808594 92.476562 C 199.976562 92.078125 200.179688 91.699219 200.417969 91.339844 C 200.660156 90.980469 200.929688 90.648438 201.238281 90.34375 C 201.542969 90.039062 201.875 89.765625 202.234375 89.527344 C 202.59375 89.285156 202.972656 89.082031 203.371094 88.917969 C 203.773438 88.753906 204.183594 88.628906 204.605469 88.542969 C 205.03125 88.457031 205.457031 88.417969 205.890625 88.417969 C 206.324219 88.417969 206.75 88.457031 207.175781 88.542969 C 207.597656 88.628906 208.011719 88.753906 208.410156 88.917969 C 208.808594 89.082031 209.1875 89.285156 209.546875 89.527344 C 209.90625 89.765625 210.238281 90.039062 210.542969 90.34375 C 210.851562 90.648438 211.125 90.980469 211.363281 91.339844 C 211.601562 91.699219 211.804688 92.078125 211.972656 92.476562 C 212.136719 92.878906 212.261719 93.289062 212.347656 93.710938 C 212.429688 94.136719 212.472656 94.5625 212.472656 94.996094 Z M 212.472656 94.996094 " fill-opacity="1" fill-rule="nonzero"/><path fill="#363636" d="M 337.878906 132.914062 C 337.878906 133.457031 337.828125 133.988281 337.722656 134.519531 C 337.617188 135.046875 337.460938 135.5625 337.253906 136.058594 C 337.046875 136.558594 336.792969 137.03125 336.492188 137.480469 C 336.195312 137.929688 335.851562 138.34375 335.472656 138.726562 C 335.089844 139.105469 334.675781 139.449219 334.226562 139.746094 C 333.777344 140.046875 333.304688 140.300781 332.804688 140.507812 C 332.308594 140.710938 331.792969 140.867188 331.265625 140.972656 C 330.734375 141.078125 330.199219 141.132812 329.660156 141.132812 C 329.121094 141.132812 328.585938 141.078125 328.058594 140.972656 C 327.527344 140.867188 327.015625 140.710938 326.515625 140.507812 C 326.015625 140.300781 325.542969 140.046875 325.09375 139.746094 C 324.644531 139.449219 324.230469 139.105469 323.847656 138.726562 C 323.46875 138.34375 323.125 137.929688 322.828125 137.480469 C 322.527344 137.03125 322.273438 136.558594 322.066406 136.058594 C 321.859375 135.5625 321.703125 135.046875 321.601562 134.519531 C 321.496094 133.988281 321.441406 133.457031 321.441406 132.914062 C 321.441406 132.375 321.496094 131.84375 321.601562 131.3125 C 321.703125 130.785156 321.859375 130.269531 322.066406 129.769531 C 322.273438 129.273438 322.527344 128.800781 322.828125 128.351562 C 323.125 127.902344 323.46875 127.488281 323.847656 127.105469 C 324.230469 126.722656 324.644531 126.382812 325.09375 126.085938 C 325.542969 125.785156 326.015625 125.53125 326.515625 125.324219 C 327.015625 125.117188 327.527344 124.960938 328.058594 124.855469 C 328.585938 124.753906 329.121094 124.699219 329.660156 124.699219 C 330.199219 124.699219 330.734375 124.753906 331.265625 124.855469 C 331.792969 124.960938 332.308594 125.117188 332.804688 125.324219 C 333.304688 125.53125 333.777344 125.785156 334.226562 126.085938 C 334.675781 126.382812 335.089844 126.722656 335.472656 127.105469 C 335.851562 127.488281 336.195312 127.902344 336.492188 128.351562 C 336.792969 128.800781 337.046875 129.273438 337.253906 129.769531 C 337.460938 130.269531 337.617188 130.785156 337.722656 131.3125 C 337.828125 131.84375 337.878906 132.375 337.878906 132.914062 Z M 337.878906 132.914062 " fill-opacity="1" fill-rule="nonzero"/><path fill="#363636" d="M 426.289062 5.785156 C 426.289062 6.164062 426.253906 6.539062 426.179688 6.910156 C 426.105469 7.28125 425.996094 7.640625 425.851562 7.988281 C 425.707031 8.339844 425.53125 8.671875 425.320312 8.984375 C 425.109375 9.300781 424.871094 9.589844 424.605469 9.855469 C 424.335938 10.125 424.046875 10.363281 423.730469 10.574219 C 423.417969 10.78125 423.085938 10.960938 422.738281 11.105469 C 422.386719 11.25 422.027344 11.359375 421.65625 11.433594 C 421.285156 11.507812 420.910156 11.542969 420.53125 11.542969 C 420.15625 11.542969 419.78125 11.507812 419.410156 11.433594 C 419.039062 11.359375 418.679688 11.25 418.328125 11.105469 C 417.980469 10.960938 417.648438 10.78125 417.335938 10.574219 C 417.019531 10.363281 416.730469 10.125 416.460938 9.855469 C 416.195312 9.589844 415.957031 9.300781 415.746094 8.984375 C 415.535156 8.671875 415.359375 8.339844 415.214844 7.988281 C 415.070312 7.640625 414.960938 7.28125 414.886719 6.910156 C 414.8125 6.539062 414.777344 6.164062 414.777344 5.785156 C 414.777344 5.410156 414.8125 5.035156 414.886719 4.664062 C 414.960938 4.292969 415.070312 3.933594 415.214844 3.585938 C 415.359375 3.234375 415.535156 2.902344 415.746094 2.589844 C 415.957031 2.273438 416.195312 1.984375 416.460938 1.71875 C 416.730469 1.449219 417.019531 1.210938 417.335938 1 C 417.648438 0.792969 417.980469 0.613281 418.328125 0.46875 C 418.679688 0.324219 419.039062 0.214844 419.410156 0.140625 C 419.78125 0.0664062 420.15625 0.03125 420.53125 0.03125 C 420.910156 0.03125 421.285156 0.0664062 421.65625 0.140625 C 422.027344 0.214844 422.386719 0.324219 422.738281 0.46875 C 423.085938 0.613281 423.417969 0.792969 423.730469 1 C 424.046875 1.210938 424.335938 1.449219 424.605469 1.71875 C 424.871094 1.984375 425.109375 2.273438 425.320312 2.589844 C 425.53125 2.902344 425.707031 3.234375 425.851562 3.585938 C 425.996094 3.933594 426.105469 4.292969 426.179688 4.664062 C 426.253906 5.035156 426.289062 5.410156 426.289062 5.785156 Z M 426.289062 5.785156 " fill-opacity="1" fill-rule="nonzero"/><path fill="#363636" d="M 494.121094 36.769531 C 494.378906 41.878906 490.023438 99.515625 490.023438 99.515625 C 490.023438 99.515625 475.902344 42.804688 475.648438 37.695312 C 475.59375 37.074219 475.605469 36.457031 475.679688 35.84375 C 475.75 35.226562 475.882812 34.625 476.078125 34.035156 C 476.273438 33.445312 476.523438 32.878906 476.828125 32.339844 C 477.136719 31.800781 477.496094 31.300781 477.902344 30.832031 C 478.3125 30.367188 478.761719 29.945312 479.257812 29.566406 C 479.75 29.191406 480.277344 28.867188 480.835938 28.597656 C 481.394531 28.328125 481.972656 28.113281 482.574219 27.960938 C 483.175781 27.808594 483.785156 27.714844 484.40625 27.683594 C 485.027344 27.652344 485.644531 27.683594 486.257812 27.777344 C 486.871094 27.871094 487.46875 28.023438 488.050781 28.238281 C 488.632812 28.449219 489.191406 28.71875 489.71875 29.042969 C 490.246094 29.371094 490.738281 29.742188 491.191406 30.167969 C 491.644531 30.589844 492.050781 31.054688 492.410156 31.5625 C 492.769531 32.066406 493.078125 32.605469 493.328125 33.171875 C 493.578125 33.738281 493.773438 34.324219 493.90625 34.929688 C 494.039062 35.535156 494.113281 36.148438 494.121094 36.769531 Z M 494.121094 36.769531 " fill-opacity="1" fill-rule="nonzero"/><path fill="#363636" d="M 533.8125 41.445312 C 533.8125 41.722656 533.785156 41.996094 533.730469 42.265625 C 533.675781 42.539062 533.597656 42.800781 533.492188 43.058594 C 533.386719 43.3125 533.257812 43.554688 533.101562 43.785156 C 532.949219 44.015625 532.773438 44.226562 532.578125 44.421875 C 532.382812 44.617188 532.171875 44.792969 531.941406 44.945312 C 531.710938 45.097656 531.46875 45.226562 531.214844 45.335938 C 530.957031 45.441406 530.695312 45.519531 530.425781 45.574219 C 530.152344 45.628906 529.878906 45.65625 529.601562 45.65625 C 529.328125 45.65625 529.050781 45.628906 528.78125 45.574219 C 528.511719 45.519531 528.246094 45.441406 527.992188 45.335938 C 527.734375 45.226562 527.492188 45.097656 527.265625 44.945312 C 527.035156 44.792969 526.820312 44.617188 526.625 44.421875 C 526.429688 44.226562 526.257812 44.015625 526.101562 43.785156 C 525.949219 43.554688 525.820312 43.3125 525.714844 43.058594 C 525.609375 42.800781 525.527344 42.539062 525.472656 42.265625 C 525.421875 41.996094 525.394531 41.722656 525.394531 41.445312 C 525.394531 41.171875 525.421875 40.894531 525.472656 40.625 C 525.527344 40.355469 525.609375 40.089844 525.714844 39.835938 C 525.820312 39.582031 525.949219 39.339844 526.101562 39.109375 C 526.257812 38.878906 526.429688 38.664062 526.625 38.46875 C 526.820312 38.273438 527.035156 38.101562 527.265625 37.945312 C 527.492188 37.792969 527.734375 37.664062 527.992188 37.558594 C 528.246094 37.453125 528.511719 37.371094 528.78125 37.320312 C 529.050781 37.265625 529.328125 37.238281 529.601562 37.238281 C 529.878906 37.238281 530.152344 37.265625 530.425781 37.320312 C 530.695312 37.371094 530.957031 37.453125 531.214844 37.558594 C 531.46875 37.664062 531.710938 37.792969 531.941406 37.945312 C 532.171875 38.101562 532.382812 38.273438 532.578125 38.46875 C 532.773438 38.664062 532.949219 38.878906 533.101562 39.109375 C 533.257812 39.339844 533.386719 39.582031 533.492188 39.835938 C 533.597656 40.089844 533.675781 40.355469 533.730469 40.625 C 533.785156 40.894531 533.8125 41.171875 533.8125 41.445312 Z M 533.8125 41.445312 " fill-opacity="1" fill-rule="nonzero"/><path fill="#363636" d="M 644.832031 32.605469 C 644.832031 32.910156 644.800781 33.210938 644.742188 33.507812 C 644.683594 33.804688 644.59375 34.09375 644.480469 34.375 C 644.363281 34.65625 644.21875 34.921875 644.050781 35.171875 C 643.882812 35.425781 643.691406 35.660156 643.476562 35.875 C 643.261719 36.089844 643.027344 36.28125 642.777344 36.449219 C 642.523438 36.617188 642.257812 36.757812 641.976562 36.875 C 641.695312 36.992188 641.410156 37.078125 641.109375 37.136719 C 640.8125 37.195312 640.511719 37.226562 640.210938 37.226562 C 639.90625 37.226562 639.605469 37.195312 639.308594 37.136719 C 639.007812 37.078125 638.71875 36.992188 638.441406 36.875 C 638.160156 36.757812 637.894531 36.617188 637.640625 36.449219 C 637.390625 36.28125 637.15625 36.089844 636.941406 35.875 C 636.726562 35.660156 636.535156 35.425781 636.367188 35.171875 C 636.199219 34.921875 636.054688 34.65625 635.9375 34.375 C 635.824219 34.09375 635.734375 33.804688 635.675781 33.507812 C 635.617188 33.210938 635.585938 32.910156 635.585938 32.605469 C 635.585938 32.304688 635.617188 32.003906 635.675781 31.707031 C 635.734375 31.40625 635.824219 31.117188 635.9375 30.839844 C 636.054688 30.558594 636.199219 30.292969 636.367188 30.039062 C 636.535156 29.789062 636.726562 29.554688 636.941406 29.339844 C 637.15625 29.125 637.390625 28.933594 637.640625 28.765625 C 637.894531 28.597656 638.160156 28.453125 638.441406 28.339844 C 638.71875 28.222656 639.007812 28.132812 639.308594 28.074219 C 639.605469 28.015625 639.90625 27.988281 640.210938 27.988281 C 640.511719 27.988281 640.8125 28.015625 641.109375 28.074219 C 641.410156 28.132812 641.695312 28.222656 641.976562 28.339844 C 642.257812 28.453125 642.523438 28.597656 642.777344 28.765625 C 643.027344 28.933594 643.261719 29.125 643.476562 29.339844 C 643.691406 29.554688 643.882812 29.789062 644.050781 30.039062 C 644.21875 30.292969 644.363281 30.558594 644.480469 30.839844 C 644.59375 31.117188 644.683594 31.40625 644.742188 31.707031 C 644.800781 32.003906 644.832031 32.304688 644.832031 32.605469 Z M 644.832031 32.605469 " fill-opacity="1" fill-rule="nonzero"/><path fill="#363636" d="M 746.949219 26.863281 C 744.289062 31.480469 700.558594 91.699219 700.558594 91.699219 C 700.558594 91.699219 727.550781 21.820312 730.222656 17.199219 C 730.53125 16.628906 730.890625 16.09375 731.300781 15.59375 C 731.714844 15.097656 732.171875 14.644531 732.679688 14.238281 C 733.183594 13.832031 733.722656 13.480469 734.296875 13.179688 C 734.871094 12.882812 735.46875 12.644531 736.09375 12.46875 C 736.714844 12.292969 737.351562 12.179688 737.996094 12.128906 C 738.640625 12.078125 739.285156 12.09375 739.925781 12.171875 C 740.570312 12.253906 741.199219 12.394531 741.8125 12.601562 C 742.425781 12.808594 743.011719 13.074219 743.574219 13.398438 C 744.132812 13.722656 744.65625 14.097656 745.140625 14.527344 C 745.625 14.957031 746.0625 15.429688 746.453125 15.949219 C 746.839844 16.464844 747.175781 17.015625 747.453125 17.601562 C 747.730469 18.183594 747.949219 18.789062 748.105469 19.417969 C 748.261719 20.046875 748.355469 20.683594 748.382812 21.332031 C 748.410156 21.976562 748.375 22.621094 748.273438 23.261719 C 748.171875 23.898438 748.007812 24.523438 747.78125 25.128906 C 747.554688 25.734375 747.273438 26.3125 746.929688 26.863281 Z M 746.949219 26.863281 " fill-opacity="1" fill-rule="nonzero"/><path fill="#363636" d="M 795.125 16.6875 C 795.125 17.160156 795.082031 17.625 794.988281 18.089844 C 794.898438 18.550781 794.761719 19.003906 794.578125 19.4375 C 794.398438 19.875 794.175781 20.289062 793.914062 20.683594 C 793.652344 21.074219 793.355469 21.4375 793.019531 21.773438 C 792.6875 22.105469 792.324219 22.402344 791.929688 22.667969 C 791.535156 22.929688 791.121094 23.148438 790.6875 23.332031 C 790.25 23.511719 789.800781 23.648438 789.335938 23.738281 C 788.871094 23.832031 788.40625 23.878906 787.933594 23.878906 C 787.460938 23.878906 786.992188 23.832031 786.527344 23.738281 C 786.066406 23.648438 785.617188 23.511719 785.179688 23.332031 C 784.742188 23.148438 784.328125 22.929688 783.9375 22.667969 C 783.542969 22.402344 783.179688 22.105469 782.847656 21.773438 C 782.511719 21.4375 782.214844 21.074219 781.949219 20.683594 C 781.6875 20.289062 781.46875 19.875 781.285156 19.4375 C 781.105469 19.003906 780.96875 18.550781 780.878906 18.089844 C 780.785156 17.625 780.738281 17.160156 780.738281 16.6875 C 780.738281 16.214844 780.785156 15.746094 780.875 15.285156 C 780.96875 14.820312 781.105469 14.371094 781.285156 13.933594 C 781.46875 13.496094 781.6875 13.082031 781.949219 12.691406 C 782.214844 12.296875 782.511719 11.933594 782.847656 11.601562 C 783.179688 11.265625 783.542969 10.96875 783.9375 10.707031 C 784.328125 10.445312 784.742188 10.222656 785.179688 10.042969 C 785.617188 9.859375 786.066406 9.726562 786.53125 9.632812 C 786.992188 9.539062 787.460938 9.496094 787.933594 9.496094 C 788.40625 9.496094 788.871094 9.539062 789.335938 9.632812 C 789.800781 9.726562 790.25 9.859375 790.6875 10.042969 C 791.121094 10.222656 791.535156 10.445312 791.929688 10.707031 C 792.324219 10.96875 792.6875 11.265625 793.019531 11.601562 C 793.355469 11.933594 793.652344 12.296875 793.914062 12.691406 C 794.175781 13.082031 794.398438 13.496094 794.578125 13.933594 C 794.761719 14.371094 794.898438 14.820312 794.988281 15.285156 C 795.082031 15.746094 795.125 16.214844 795.125 16.6875 Z M 795.125 16.6875 " fill-opacity="1" fill-rule="nonzero"/><path fill="#363636" d="M 769.546875 78.898438 C 767.53125 80.902344 705.46875 132.402344 705.46875 132.402344 C 705.46875 132.402344 760.269531 73.632812 762.261719 71.628906 C 762.503906 71.402344 762.765625 71.203125 763.046875 71.027344 C 763.324219 70.851562 763.621094 70.703125 763.929688 70.585938 C 764.238281 70.464844 764.554688 70.378906 764.878906 70.320312 C 765.207031 70.261719 765.535156 70.234375 765.863281 70.242188 C 766.195312 70.246094 766.523438 70.285156 766.84375 70.351562 C 767.167969 70.421875 767.480469 70.519531 767.785156 70.648438 C 768.089844 70.777344 768.378906 70.933594 768.65625 71.121094 C 768.929688 71.304688 769.183594 71.511719 769.417969 71.746094 C 769.648438 71.980469 769.859375 72.234375 770.042969 72.507812 C 770.230469 72.78125 770.386719 73.070312 770.515625 73.375 C 770.644531 73.679688 770.742188 73.996094 770.8125 74.316406 C 770.878906 74.640625 770.917969 74.96875 770.921875 75.296875 C 770.929688 75.628906 770.902344 75.957031 770.84375 76.28125 C 770.785156 76.609375 770.699219 76.925781 770.578125 77.234375 C 770.460938 77.542969 770.3125 77.835938 770.136719 78.117188 C 769.960938 78.394531 769.761719 78.65625 769.535156 78.898438 Z M 769.546875 78.898438 " fill-opacity="1" fill-rule="nonzero"/><path fill="#363636" d="M 822.265625 103.011719 C 822.265625 103.324219 822.234375 103.628906 822.175781 103.933594 C 822.113281 104.238281 822.023438 104.535156 821.90625 104.824219 C 821.785156 105.109375 821.640625 105.382812 821.46875 105.640625 C 821.296875 105.898438 821.101562 106.136719 820.878906 106.359375 C 820.660156 106.578125 820.421875 106.773438 820.164062 106.945312 C 819.90625 107.117188 819.632812 107.265625 819.34375 107.382812 C 819.058594 107.503906 818.761719 107.59375 818.457031 107.652344 C 818.152344 107.714844 817.84375 107.742188 817.535156 107.742188 C 817.222656 107.742188 816.914062 107.714844 816.609375 107.652344 C 816.304688 107.59375 816.007812 107.503906 815.722656 107.382812 C 815.433594 107.265625 815.160156 107.117188 814.902344 106.945312 C 814.644531 106.773438 814.40625 106.578125 814.1875 106.359375 C 813.964844 106.136719 813.769531 105.898438 813.597656 105.640625 C 813.425781 105.382812 813.28125 105.109375 813.160156 104.824219 C 813.042969 104.535156 812.953125 104.238281 812.890625 103.933594 C 812.832031 103.628906 812.800781 103.324219 812.800781 103.011719 C 812.800781 102.703125 812.832031 102.394531 812.890625 102.089844 C 812.953125 101.785156 813.042969 101.488281 813.160156 101.203125 C 813.28125 100.914062 813.425781 100.640625 813.597656 100.382812 C 813.769531 100.125 813.964844 99.886719 814.1875 99.667969 C 814.40625 99.445312 814.644531 99.25 814.902344 99.078125 C 815.164062 98.90625 815.433594 98.757812 815.722656 98.640625 C 816.007812 98.523438 816.304688 98.433594 816.609375 98.371094 C 816.914062 98.3125 817.222656 98.28125 817.535156 98.28125 C 817.84375 98.28125 818.152344 98.3125 818.457031 98.371094 C 818.761719 98.433594 819.058594 98.523438 819.34375 98.640625 C 819.632812 98.757812 819.90625 98.90625 820.164062 99.078125 C 820.421875 99.25 820.660156 99.445312 820.878906 99.667969 C 821.101562 99.886719 821.296875 100.125 821.46875 100.382812 C 821.640625 100.640625 821.785156 100.914062 821.90625 101.203125 C 822.023438 101.488281 822.113281 101.785156 822.175781 102.089844 C 822.234375 102.394531 822.265625 102.703125 822.265625 103.011719 Z M 822.265625 103.011719 " fill-opacity="1" fill-rule="nonzero"/><path fill="#363636" d="M 939.867188 129.730469 C 939.867188 130.042969 939.835938 130.351562 939.773438 130.65625 C 939.714844 130.960938 939.625 131.253906 939.507812 131.542969 C 939.386719 131.828125 939.242188 132.101562 939.070312 132.359375 C 938.894531 132.617188 938.699219 132.859375 938.480469 133.078125 C 938.261719 133.296875 938.019531 133.492188 937.761719 133.664062 C 937.503906 133.839844 937.230469 133.984375 936.945312 134.101562 C 936.65625 134.222656 936.359375 134.3125 936.054688 134.371094 C 935.75 134.433594 935.445312 134.464844 935.132812 134.464844 C 934.824219 134.464844 934.515625 134.433594 934.210938 134.371094 C 933.90625 134.3125 933.609375 134.222656 933.320312 134.101562 C 933.035156 133.984375 932.761719 133.839844 932.503906 133.664062 C 932.246094 133.492188 932.007812 133.296875 931.785156 133.078125 C 931.566406 132.859375 931.371094 132.617188 931.199219 132.359375 C 931.023438 132.101562 930.878906 131.828125 930.761719 131.542969 C 930.640625 131.253906 930.550781 130.960938 930.492188 130.65625 C 930.429688 130.351562 930.398438 130.042969 930.398438 129.730469 C 930.398438 129.421875 930.429688 129.113281 930.492188 128.808594 C 930.550781 128.503906 930.640625 128.207031 930.761719 127.921875 C 930.878906 127.632812 931.023438 127.359375 931.199219 127.101562 C 931.371094 126.84375 931.566406 126.605469 931.785156 126.386719 C 932.007812 126.167969 932.246094 125.96875 932.503906 125.796875 C 932.761719 125.625 933.035156 125.480469 933.320312 125.359375 C 933.609375 125.242188 933.90625 125.152344 934.210938 125.089844 C 934.515625 125.03125 934.824219 125 935.132812 125 C 935.445312 125 935.75 125.03125 936.054688 125.089844 C 936.359375 125.152344 936.65625 125.242188 936.945312 125.359375 C 937.230469 125.480469 937.503906 125.625 937.761719 125.796875 C 938.019531 125.96875 938.261719 126.167969 938.480469 126.386719 C 938.699219 126.605469 938.894531 126.84375 939.070312 127.101562 C 939.242188 127.359375 939.386719 127.632812 939.507812 127.921875 C 939.625 128.207031 939.714844 128.503906 939.773438 128.808594 C 939.835938 129.113281 939.867188 129.421875 939.867188 129.730469 Z M 939.867188 129.730469 " fill-opacity="1" fill-rule="nonzero"/><path fill="#363636" d="M 868.328125 246.886719 C 868.328125 247.222656 868.292969 247.558594 868.226562 247.886719 C 868.160156 248.21875 868.0625 248.542969 867.933594 248.851562 C 867.804688 249.164062 867.648438 249.460938 867.460938 249.742188 C 867.269531 250.023438 867.058594 250.28125 866.820312 250.523438 C 866.582031 250.761719 866.320312 250.972656 866.039062 251.160156 C 865.757812 251.347656 865.460938 251.507812 865.148438 251.636719 C 864.839844 251.765625 864.515625 251.863281 864.183594 251.929688 C 863.855469 251.996094 863.519531 252.027344 863.179688 252.027344 C 862.84375 252.027344 862.507812 251.996094 862.175781 251.929688 C 861.847656 251.863281 861.523438 251.765625 861.210938 251.636719 C 860.898438 251.507812 860.605469 251.347656 860.324219 251.160156 C 860.042969 250.972656 859.78125 250.761719 859.542969 250.523438 C 859.304688 250.28125 859.089844 250.023438 858.902344 249.742188 C 858.714844 249.460938 858.558594 249.164062 858.429688 248.851562 C 858.296875 248.542969 858.199219 248.21875 858.136719 247.886719 C 858.070312 247.558594 858.035156 247.222656 858.035156 246.886719 C 858.035156 246.546875 858.070312 246.210938 858.136719 245.882812 C 858.199219 245.550781 858.296875 245.230469 858.429688 244.917969 C 858.558594 244.605469 858.714844 244.308594 858.902344 244.027344 C 859.089844 243.746094 859.304688 243.488281 859.542969 243.246094 C 859.78125 243.007812 860.042969 242.796875 860.324219 242.609375 C 860.605469 242.421875 860.898438 242.261719 861.210938 242.132812 C 861.523438 242.003906 861.847656 241.90625 862.175781 241.839844 C 862.507812 241.773438 862.84375 241.742188 863.179688 241.742188 C 863.519531 241.742188 863.855469 241.773438 864.183594 241.839844 C 864.515625 241.90625 864.839844 242.003906 865.148438 242.132812 C 865.460938 242.261719 865.757812 242.421875 866.039062 242.609375 C 866.320312 242.796875 866.582031 243.007812 866.820312 243.246094 C 867.058594 243.488281 867.269531 243.746094 867.460938 244.027344 C 867.648438 244.308594 867.804688 244.605469 867.933594 244.917969 C 868.0625 245.230469 868.160156 245.550781 868.226562 245.882812 C 868.292969 246.210938 868.328125 246.546875 868.328125 246.886719 Z M 868.328125 246.886719 " fill-opacity="1" fill-rule="nonzero"/></svg>