<svg xmlns="http://www.w3.org/2000/svg" xmlns:xlink="http://www.w3.org/1999/xlink" width="500" zoomAndPan="magnify" viewBox="0 0 375 374.999991" height="500" preserveAspectRatio="xMidYMid meet" version="1.0"><path fill="#fff6cb" d="M 101.027344 315.035156 C 101.027344 315.035156 53.203125 307.320312 26.632812 263.835938 C -5.117188 211.878906 -5.78125 158.929688 60.855469 89.492188 C 100.070312 58.429688 160.617188 41.828125 217.402344 35.199219 C 271.988281 47.183594 288.648438 52.839844 336.3125 70.328125 L 347.835938 89.796875 L 347.835938 99.667969 L 355 105.832031 L 365.390625 117.191406 L 369.4375 134.058594 L 365.058594 147.875 L 355 158.804688 L 343.746094 166.863281 L 347.835938 175.523438 L 354.980469 184.871094 L 354.980469 200.488281 L 347.835938 215.011719 L 336.3125 226.21875 L 320.371094 230.207031 L 320.359375 237.0625 L 324.652344 247.316406 L 322.105469 265.3125 L 312.023438 280.226562 L 297.40625 286.296875 L 281.085938 286.820312 L 276.796875 287.707031 L 281.726562 296.734375 L 279.015625 310.941406 L 264.332031 325.015625 L 228.25 327.441406 L 197.625 329.933594 L 146.335938 329.933594 Z M 101.027344 315.035156 " fill-opacity="1" fill-rule="evenodd"/><path fill="#363636" d="M 349.761719 168.1875 C 349.855469 168.128906 349.953125 168.078125 350.046875 168.027344 C 359.652344 162.625 373.675781 149.96875 373.820312 132.730469 C 373.914062 121.839844 368.5625 108.820312 352.171875 94.671875 C 352.371094 90.855469 352.003906 87.472656 351.351562 84.523438 C 349.871094 77.8125 346.140625 72.207031 344.832031 70.386719 C 344.644531 69.742188 344.257812 69.0625 343.558594 68.386719 C 343.367188 68.207031 343.042969 67.917969 342.507812 67.632812 C 342.179688 67.460938 340.917969 66.96875 338.851562 66.289062 C 320.210938 60.164062 222.425781 31.011719 222.425781 31.011719 L 221.214844 30.828125 C 144.90625 30.09375 82.761719 61.785156 45.09375 99.445312 C 19.640625 124.890625 5.386719 153.148438 4.910156 176.179688 C -5.898438 222.222656 23.304688 273.226562 52.230469 297.839844 C 73.167969 315.648438 138.417969 337.5 180.546875 333.9375 C 214.089844 331.097656 244.507812 332.609375 262.414062 328.734375 C 271.632812 326.738281 277.84375 323.125 280.648438 317.796875 C 285.890625 307.859375 287.019531 300.371094 285.09375 294.324219 C 284.769531 293.316406 284.359375 292.335938 283.859375 291.382812 C 288.109375 291.535156 293.109375 291.40625 298.089844 290.570312 C 307.363281 289.011719 316.441406 284.984375 321.394531 276.613281 C 325.386719 269.867188 329.203125 258.660156 328.597656 247.769531 C 328.339844 243.140625 327.300781 238.582031 325.222656 234.394531 C 349.648438 232.175781 357.8125 211.574219 359.035156 199.867188 C 360.242188 188.261719 358.25 179.003906 353.238281 172.125 C 352.210938 170.71875 351.054688 169.398438 349.761719 168.1875 Z M 189.054688 257.203125 C 190.402344 257.492188 191.382812 257.730469 191.832031 257.84375 C 225.648438 271.945312 250.816406 278.847656 265.308594 286.476562 C 271.332031 289.644531 275.375 292.703125 276.738281 296.988281 C 278.121094 301.328125 276.660156 306.570312 272.894531 313.710938 C 271.78125 315.824219 269.585938 317.21875 266.699219 318.371094 C 262.980469 319.847656 258.214844 320.785156 252.617188 321.445312 C 234.527344 323.589844 208.304688 322.789062 179.804688 325.203125 C 139.808594 328.585938 77.792969 308.074219 57.914062 291.164062 C 30.917969 268.199219 3.207031 220.691406 13.542969 177.757812 L 13.664062 176.785156 C 13.925781 155.414062 27.597656 129.332031 51.292969 105.644531 C 87.507812 69.4375 147.230469 39.054688 220.519531 39.589844 C 228.714844 42.03125 318.359375 68.777344 336.113281 74.617188 C 336.554688 74.761719 336.988281 74.910156 337.367188 75.039062 C 338.597656 76.746094 341.484375 80.507812 342.789062 86.414062 C 344.273438 93.113281 343.636719 102.496094 336.707031 114.683594 C 318.945312 145.929688 319.636719 184.816406 325.054688 202.714844 C 325.332031 203.625 324.757812 204.382812 323.980469 205.0625 C 322.308594 206.515625 319.660156 207.484375 316.515625 207.914062 C 298.53125 210.363281 267.855469 194.589844 271.015625 129.714844 C 271.070312 128.589844 270.691406 127.488281 269.957031 126.636719 C 269.957031 126.636719 247.113281 99.597656 203.386719 117.316406 C 202.0625 117.851562 201.082031 118.996094 200.757812 120.386719 C 200.757812 120.386719 184.421875 190.242188 109.210938 212.847656 C 106.894531 213.546875 105.582031 215.992188 106.273438 218.3125 C 106.972656 220.625 109.421875 221.941406 111.738281 221.242188 C 183.671875 199.617188 205.027344 137.367188 208.6875 124.652344 C 239.390625 113.109375 257.597656 127.027344 262.171875 131.238281 C 261.820312 140.210938 262.09375 148.316406 262.882812 155.621094 L 219.574219 146.78125 C 216.328125 145.746094 212.511719 146.050781 208.5625 147.664062 C 203.535156 149.71875 198.167969 153.953125 193.824219 159.351562 C 187.210938 167.5625 183.121094 178.382812 185.332031 187.753906 C 185.761719 189.585938 186.425781 191.378906 187.347656 193.097656 C 182.035156 193.890625 176.699219 196.824219 172.25 201.28125 C 163.59375 209.957031 158.484375 224.132812 163.414062 236.59375 C 164.78125 240.0625 166.925781 243.4375 170.035156 246.527344 C 168.394531 246.597656 166.796875 246.75 165.292969 247.011719 C 158.699219 248.15625 153.84375 251.378906 152.414062 256.847656 C 151.652344 259.761719 151.847656 263.535156 153.800781 268.320312 C 156.160156 274.082031 161.285156 281.761719 170.445312 291.800781 C 170.738281 292.121094 171.078125 292.398438 171.449219 292.625 C 171.449219 292.625 203.816406 311.734375 219.886719 319.507812 C 222.0625 320.5625 224.683594 319.648438 225.738281 317.472656 C 226.796875 315.300781 225.878906 312.675781 223.707031 311.617188 C 209.101562 304.550781 180.851562 287.984375 176.488281 285.414062 C 169.84375 278.089844 165.550781 272.222656 163.097656 267.515625 C 161.15625 263.796875 160.363281 261.101562 160.898438 259.066406 C 161.226562 257.8125 162.253906 257.101562 163.492188 256.570312 C 165.601562 255.660156 168.285156 255.324219 171.109375 255.242188 C 177.445312 255.054688 184.445312 256.246094 188.546875 257.101562 C 188.714844 257.144531 188.886719 257.179688 189.054688 257.203125 Z M 202.5625 204.855469 C 231.757812 212.894531 303.953125 231.117188 314.25 233.714844 C 319.050781 239.03125 320.265625 246 319.800781 252.691406 C 319.28125 260.21875 316.617188 267.476562 313.851562 272.148438 C 310.238281 278.246094 303.394531 280.792969 296.636719 281.925781 C 286.574219 283.617188 276.425781 282.019531 274.402344 281.667969 C 272.882812 280.660156 271.214844 279.679688 269.394531 278.722656 C 254.714844 270.996094 229.207031 263.957031 194.90625 249.628906 C 194.714844 249.550781 194.519531 249.480469 194.316406 249.429688 C 194.316406 249.429688 193.042969 249.105469 190.953125 248.671875 C 180.109375 245.097656 174.039062 239.625 171.566406 233.371094 C 167.9375 224.195312 172.082031 213.859375 178.457031 207.472656 C 182.601562 203.320312 187.746094 200.65625 192.476562 201.949219 C 194.011719 202.4375 196.324219 203.113281 199.257812 203.933594 C 199.632812 204.121094 200.019531 204.300781 200.410156 204.480469 C 201.109375 204.796875 201.847656 204.910156 202.5625 204.855469 Z M 330.59375 168.007812 C 337.652344 169.722656 342.84375 172.753906 346.152344 177.285156 C 350.054688 182.640625 351.253906 189.921875 350.3125 198.960938 C 349.277344 208.902344 341.71875 227.023438 318.296875 225.753906 C 318.078125 225.660156 317.851562 225.582031 317.621094 225.527344 C 317.621094 225.527344 231.539062 203.871094 202.480469 195.746094 C 198.8125 193.816406 196.355469 191.4375 194.957031 188.710938 C 191.101562 181.210938 195.027344 171.832031 200.652344 164.839844 C 203.984375 160.703125 208.019531 157.355469 211.878906 155.777344 C 213.726562 155.023438 215.488281 154.628906 216.984375 155.160156 C 217.171875 155.222656 217.363281 155.277344 217.558594 155.316406 L 264.21875 164.835938 C 272.324219 208.726562 300.957031 218.878906 317.703125 216.59375 C 323.992188 215.738281 328.886719 213.101562 331.453125 209.894531 C 333.746094 207.035156 334.511719 203.679688 333.449219 200.175781 C 331.167969 192.644531 329.824219 181.085938 330.59375 168.007812 Z M 350.410156 104.921875 C 362.171875 116.292969 365.867188 126.394531 364.910156 135.0625 C 363.847656 144.667969 357.199219 152.128906 351 156.894531 C 348.085938 159.136719 345.25 160.785156 343.050781 161.742188 C 342.347656 162.050781 341.507812 162.320312 341.152344 162.425781 C 338.269531 161.078125 335.03125 160.003906 331.417969 159.207031 C 333.121094 145.960938 337.066406 131.796875 344.332031 119.015625 C 347.226562 113.921875 349.171875 109.226562 350.410156 104.921875 Z M 338.890625 67.503906 C 338.933594 67.484375 338.976562 67.472656 339.019531 67.453125 C 339.0625 67.4375 339.105469 67.425781 339.152344 67.40625 Z M 344.554688 73.300781 C 344.34375 73.886719 344.019531 74.382812 343.574219 74.789062 C 343.132812 75.195312 342.570312 75.511719 341.886719 75.734375 C 343.464844 75.21875 344.175781 74.1875 344.554688 73.300781 Z M 344.554688 73.300781 " fill-opacity="1" fill-rule="evenodd"/></svg>