<svg xmlns="http://www.w3.org/2000/svg" xmlns:xlink="http://www.w3.org/1999/xlink" width="500" zoomAndPan="magnify" viewBox="0 0 375 374.999991" height="500" preserveAspectRatio="xMidYMid meet" version="1.0"><path fill="#fff6cb" d="M 273.652344 315.035156 C 273.652344 315.035156 321.476562 307.320312 348.046875 263.835938 C 379.796875 211.878906 380.460938 158.929688 313.828125 89.492188 C 274.609375 58.429688 214.0625 41.828125 157.277344 35.199219 C 102.691406 47.183594 86.03125 52.839844 38.367188 70.328125 L 26.84375 89.796875 L 26.84375 99.667969 L 19.683594 105.832031 L 9.289062 117.191406 L 5.242188 134.058594 L 9.621094 147.875 L 19.683594 158.804688 L 30.933594 166.863281 L 26.84375 175.523438 L 19.699219 184.871094 L 19.699219 200.488281 L 26.84375 215.011719 L 38.367188 226.21875 L 54.3125 230.207031 L 54.324219 237.0625 L 50.03125 247.316406 L 52.574219 265.3125 L 62.65625 280.226562 L 77.273438 286.296875 L 93.597656 286.820312 L 97.886719 287.707031 L 92.953125 296.734375 L 95.664062 310.941406 L 110.351562 325.015625 L 146.429688 327.441406 L 177.054688 329.933594 L 228.34375 329.933594 Z M 273.652344 315.035156 " fill-opacity="1" fill-rule="evenodd"/><path fill="#363636" d="M 24.917969 168.1875 C 24.824219 168.128906 24.730469 168.078125 24.632812 168.027344 C 15.027344 162.625 1.007812 149.96875 0.859375 132.730469 C 0.765625 121.839844 6.117188 108.820312 22.507812 94.671875 C 22.308594 90.855469 22.675781 87.472656 23.328125 84.523438 C 24.8125 77.8125 28.542969 72.207031 29.847656 70.386719 C 30.035156 69.742188 30.421875 69.0625 31.121094 68.386719 C 31.3125 68.207031 31.636719 67.917969 32.175781 67.632812 C 32.503906 67.460938 33.761719 66.96875 35.828125 66.289062 C 54.472656 60.164062 152.253906 31.011719 152.253906 31.011719 L 153.464844 30.828125 C 229.773438 30.09375 291.917969 61.785156 329.589844 99.445312 C 355.039062 124.890625 369.292969 153.148438 369.769531 176.179688 C 380.578125 222.222656 351.375 273.226562 322.449219 297.839844 C 301.511719 315.648438 236.261719 337.5 194.136719 333.9375 C 160.589844 331.097656 130.171875 332.609375 112.265625 328.734375 C 103.046875 326.738281 96.839844 323.125 94.03125 317.796875 C 88.789062 307.859375 87.660156 300.371094 89.585938 294.324219 C 89.910156 293.316406 90.320312 292.335938 90.820312 291.382812 C 86.570312 291.535156 81.570312 291.40625 76.59375 290.570312 C 67.316406 289.011719 58.238281 284.984375 53.285156 276.613281 C 49.292969 269.867188 45.480469 258.660156 46.082031 247.769531 C 46.339844 243.140625 47.378906 238.582031 49.457031 234.394531 C 25.03125 232.175781 16.867188 211.574219 15.644531 199.867188 C 14.4375 188.261719 16.429688 179.003906 21.445312 172.125 C 22.472656 170.71875 23.628906 169.398438 24.917969 168.1875 Z M 185.625 257.203125 C 184.277344 257.492188 183.300781 257.730469 182.847656 257.84375 C 149.035156 271.945312 123.863281 278.847656 109.371094 286.476562 C 103.347656 289.644531 99.308594 292.703125 97.941406 296.988281 C 96.558594 301.328125 98.023438 306.570312 101.789062 313.710938 C 102.902344 315.824219 105.09375 317.21875 107.980469 318.371094 C 111.699219 319.847656 116.464844 320.785156 122.0625 321.445312 C 140.152344 323.589844 166.375 322.789062 194.875 325.203125 C 234.871094 328.585938 296.886719 308.074219 316.765625 291.164062 C 343.761719 268.199219 371.472656 220.691406 361.136719 177.757812 L 361.015625 176.785156 C 360.753906 155.414062 347.082031 129.332031 323.386719 105.644531 C 287.171875 69.4375 227.453125 39.054688 154.164062 39.589844 C 145.964844 42.03125 56.320312 68.777344 38.570312 74.617188 C 38.128906 74.761719 37.691406 74.910156 37.3125 75.039062 C 36.082031 76.746094 33.195312 80.507812 31.890625 86.414062 C 30.40625 93.113281 31.042969 102.496094 37.972656 114.683594 C 55.734375 145.929688 55.046875 184.816406 49.625 202.714844 C 49.351562 203.625 49.925781 204.382812 50.699219 205.0625 C 52.371094 206.515625 55.019531 207.484375 58.164062 207.914062 C 76.152344 210.363281 106.824219 194.589844 103.664062 129.714844 C 103.609375 128.589844 103.988281 127.488281 104.726562 126.636719 C 104.726562 126.636719 127.566406 99.597656 171.296875 117.316406 C 172.617188 117.851562 173.597656 118.996094 173.921875 120.386719 C 173.921875 120.386719 190.257812 190.242188 265.46875 212.847656 C 267.785156 213.546875 269.097656 215.992188 268.40625 218.3125 C 267.707031 220.625 265.257812 221.941406 262.941406 221.242188 C 191.007812 199.617188 169.652344 137.367188 165.996094 124.652344 C 135.289062 113.109375 117.082031 127.027344 112.507812 131.238281 C 112.859375 140.210938 112.585938 148.316406 111.800781 155.621094 L 155.109375 146.78125 C 158.351562 145.746094 162.167969 146.050781 166.121094 147.664062 C 171.148438 149.71875 176.511719 153.953125 180.855469 159.351562 C 187.46875 167.5625 191.5625 178.382812 189.351562 187.753906 C 188.917969 189.585938 188.257812 191.378906 187.335938 193.097656 C 192.644531 193.890625 197.980469 196.824219 202.429688 201.28125 C 211.085938 209.957031 216.195312 224.132812 211.269531 236.59375 C 209.898438 240.0625 207.753906 243.4375 204.644531 246.527344 C 206.289062 246.597656 207.882812 246.75 209.386719 247.011719 C 215.984375 248.15625 220.835938 251.378906 222.265625 256.847656 C 223.03125 259.761719 222.835938 263.535156 220.878906 268.320312 C 218.519531 274.082031 213.394531 281.761719 204.234375 291.800781 C 203.941406 292.121094 203.601562 292.398438 203.230469 292.625 C 203.230469 292.625 170.863281 311.734375 154.796875 319.507812 C 152.617188 320.5625 149.996094 319.648438 148.941406 317.472656 C 147.882812 315.300781 148.800781 312.675781 150.972656 311.617188 C 165.578125 304.550781 193.828125 287.984375 198.195312 285.414062 C 204.835938 278.089844 209.132812 272.222656 211.585938 267.515625 C 213.523438 263.796875 214.316406 261.101562 213.78125 259.066406 C 213.457031 257.8125 212.425781 257.101562 211.1875 256.570312 C 209.082031 255.660156 206.394531 255.324219 203.570312 255.242188 C 197.234375 255.054688 190.234375 256.246094 186.132812 257.101562 C 185.964844 257.144531 185.792969 257.179688 185.625 257.203125 Z M 172.121094 204.855469 C 142.921875 212.894531 70.726562 231.117188 60.429688 233.714844 C 55.628906 239.03125 54.414062 246 54.878906 252.691406 C 55.402344 260.21875 58.0625 267.476562 60.832031 272.148438 C 64.441406 278.246094 71.285156 280.792969 78.042969 281.925781 C 88.105469 283.617188 98.257812 282.019531 100.277344 281.667969 C 101.796875 280.660156 103.464844 279.679688 105.289062 278.722656 C 119.964844 270.996094 145.472656 263.957031 179.777344 249.628906 C 179.96875 249.550781 180.164062 249.480469 180.363281 249.429688 C 180.363281 249.429688 181.636719 249.105469 183.726562 248.671875 C 194.574219 245.097656 200.640625 239.625 203.113281 233.371094 C 206.742188 224.195312 202.597656 213.859375 196.226562 207.472656 C 192.078125 203.320312 186.933594 200.65625 182.207031 201.949219 C 180.667969 202.4375 178.355469 203.113281 175.425781 203.933594 C 175.046875 204.121094 174.660156 204.300781 174.269531 204.480469 C 173.570312 204.796875 172.832031 204.910156 172.121094 204.855469 Z M 44.085938 168.007812 C 37.027344 169.722656 31.835938 172.753906 28.53125 177.285156 C 24.625 182.640625 23.425781 189.921875 24.367188 198.960938 C 25.402344 208.902344 32.960938 227.023438 56.386719 225.753906 C 56.601562 225.660156 56.828125 225.582031 57.058594 225.527344 C 57.058594 225.527344 143.140625 203.871094 172.199219 195.746094 C 175.867188 193.816406 178.324219 191.4375 179.726562 188.710938 C 183.578125 181.210938 179.65625 171.832031 174.027344 164.839844 C 170.695312 160.703125 166.660156 157.355469 162.800781 155.777344 C 160.953125 155.023438 159.195312 154.628906 157.695312 155.160156 C 157.507812 155.222656 157.320312 155.277344 157.121094 155.316406 L 110.460938 164.835938 C 102.355469 208.726562 73.722656 218.878906 56.976562 216.59375 C 50.6875 215.738281 45.796875 213.101562 43.226562 209.894531 C 40.933594 207.035156 40.171875 203.679688 41.234375 200.175781 C 43.511719 192.644531 44.855469 181.085938 44.085938 168.007812 Z M 24.273438 104.921875 C 12.507812 116.292969 8.8125 126.394531 9.769531 135.0625 C 10.832031 144.667969 17.480469 152.128906 23.679688 156.894531 C 26.59375 159.136719 29.429688 160.785156 31.628906 161.742188 C 32.332031 162.050781 33.171875 162.320312 33.527344 162.425781 C 36.410156 161.078125 39.652344 160.003906 43.261719 159.207031 C 41.558594 145.960938 37.613281 131.796875 30.347656 119.015625 C 27.457031 113.921875 25.507812 109.226562 24.273438 104.921875 Z M 35.789062 67.503906 C 35.746094 67.484375 35.703125 67.472656 35.660156 67.453125 C 35.617188 67.4375 35.574219 67.425781 35.527344 67.40625 Z M 30.128906 73.300781 C 30.339844 73.886719 30.664062 74.382812 31.105469 74.789062 C 31.546875 75.195312 32.109375 75.511719 32.792969 75.734375 C 31.214844 75.21875 30.503906 74.1875 30.128906 73.300781 Z M 30.128906 73.300781 " fill-opacity="1" fill-rule="evenodd"/></svg>