<svg xmlns="http://www.w3.org/2000/svg" xmlns:xlink="http://www.w3.org/1999/xlink" width="500" zoomAndPan="magnify" viewBox="0 0 375 374.999991" height="500" preserveAspectRatio="xMidYMid meet" version="1.0"><path fill="#fff6cb" d="M 364.351562 211.46875 L 366.609375 193.011719 L 363.566406 171.917969 L 353.707031 144.433594 L 345.832031 136.574219 L 333.710938 128.863281 L 315 124.753906 L 300.179688 120.253906 L 282.019531 112.523438 L 251.3125 100.792969 L 237.535156 97.875 L 225.382812 102.1875 L 211.480469 115.589844 L 197.746094 130.589844 L 185.996094 137.007812 L 169.945312 135.683594 L 128.566406 128.59375 L 72.566406 120.53125 L 41.027344 116.941406 L 32.390625 119.199219 L 25.601562 126.179688 L 24.648438 133.015625 L 29.246094 141.378906 L 39.195312 145.621094 L 56.585938 148.800781 L 78.652344 153.84375 L 103.5625 158.023438 L 128.726562 165.003906 L 149.898438 169.535156 L 161.210938 171.917969 L 165.53125 179.605469 L 158.925781 183.757812 L 139.992188 183.28125 L 100.972656 183.058594 L 45.628906 187.679688 L 21.796875 191.257812 L 10.65625 195.378906 L 5.386719 202.335938 L 7.265625 210.554688 L 16.058594 218.207031 L 29.617188 219.144531 L 165.53125 215.019531 L 165.53125 220.730469 L 169.945312 233.988281 L 180.851562 243.597656 L 189.613281 246.238281 L 188.167969 255.199219 L 194.628906 266.109375 L 208.722656 271.085938 L 233.878906 274.277344 L 271.265625 270.34375 L 307.140625 259.238281 L 334.386719 248.808594 L 351.3125 236.015625 Z M 364.351562 211.46875 " fill-opacity="1" fill-rule="evenodd"/><path fill="#363636" d="M 342.242188 249.019531 L 342.195312 249.050781 C 342.195312 249.050781 342.179688 249.058594 342.199219 249.046875 L 342.171875 249.066406 C 342.101562 249.105469 342.035156 249.144531 341.980469 249.171875 C 340.828125 249.785156 310.78125 265.660156 274.128906 273.53125 C 248.890625 278.953125 220.5625 280.527344 196.238281 271.054688 C 196.183594 271.035156 196.128906 271.011719 196.074219 270.988281 C 196.074219 270.988281 187.890625 267.328125 185.320312 258.671875 C 184.492188 255.882812 184.21875 252.566406 185.042969 248.671875 C 182.589844 248.015625 179.304688 246.914062 176.007812 245.136719 C 171.410156 242.660156 166.835938 238.898438 164.195312 233.394531 C 162.296875 229.4375 161.355469 224.550781 162.242188 218.515625 L 22.429688 222.761719 C 18.421875 222.945312 13.511719 221.207031 9.511719 218.167969 C 5.425781 215.058594 2.371094 210.65625 1.851562 206.003906 C 1.171875 199.949219 4.5 192.757812 17.230469 187.566406 C 17.472656 187.46875 17.726562 187.398438 17.988281 187.351562 C 17.988281 187.351562 73.601562 177.859375 116.316406 180.085938 C 118.699219 179.972656 143.875 178.808594 154.414062 179.359375 C 157.03125 179.46875 159.210938 179.160156 160.703125 178.453125 C 160.964844 178.328125 161.214844 178.238281 161.382812 178.105469 C 161.335938 178.027344 161.277344 177.945312 161.230469 177.882812 C 160.417969 176.875 158.921875 175.90625 156.734375 174.914062 C 152.648438 173.980469 115.113281 165.390625 102.445312 161.609375 C 98.75 160.878906 34.90625 148.265625 33.953125 147.964844 C 24.785156 145.09375 19.140625 134.320312 22.425781 125.40625 C 24.503906 119.757812 30.160156 114.503906 41.425781 113.105469 C 41.730469 113.070312 42.039062 113.070312 42.34375 113.109375 C 42.34375 113.109375 136.738281 125.53125 180.425781 133.019531 C 189.308594 132.816406 195.777344 127.632812 201.683594 121.414062 C 208.460938 114.277344 214.5 105.757812 221.699219 100 C 221.757812 99.957031 221.816406 99.910156 221.875 99.871094 C 221.875 99.867188 221.875 99.867188 221.878906 99.867188 C 221.878906 99.867188 234.910156 90.753906 248.835938 95.792969 C 248.921875 95.824219 249.003906 95.855469 249.085938 95.894531 C 249.085938 95.894531 283.371094 111.257812 322.125 122.507812 C 331.449219 125.3125 339.972656 125.816406 351.777344 136.617188 C 355.933594 140.417969 363.367188 153.089844 367.390625 169.480469 C 373.363281 193.800781 372.019531 226.148438 342.5625 248.796875 C 342.496094 248.847656 342.429688 248.894531 342.382812 248.929688 Z M 173.570312 158.957031 C 173.46875 160.828125 173.941406 168.71875 185.75 180.171875 C 186.050781 180.460938 186.300781 180.804688 186.484375 181.179688 C 186.484375 181.183594 186.484375 181.183594 186.484375 181.183594 C 186.484375 181.183594 196.878906 202.558594 198.105469 218.871094 C 198.117188 219.0625 198.117188 219.25 198.101562 219.441406 C 198.164062 219.554688 198.300781 219.800781 198.402344 219.964844 C 198.992188 220.898438 200.03125 221.855469 201.332031 222.320312 C 202.941406 222.894531 204.890625 222.5 206.9375 220.566406 C 209.972656 217.691406 212.910156 212.164062 215.496094 202.671875 C 215.84375 200.21875 218.949219 177.835938 215.152344 167.820312 C 214.769531 166.804688 214.859375 165.667969 215.402344 164.726562 C 215.945312 163.789062 216.878906 163.136719 217.945312 162.964844 C 217.945312 162.964844 238.617188 159.394531 249.738281 135.683594 C 250.585938 133.871094 252.742188 133.09375 254.554688 133.945312 C 256.363281 134.792969 257.140625 136.949219 256.292969 138.757812 C 246.550781 159.535156 230.335938 166.796875 223.015625 169.109375 C 224.265625 175.089844 224.277344 183.046875 223.921875 189.855469 C 235.125 185.703125 252.597656 182.832031 263.898438 184.613281 C 270.890625 185.714844 275.652344 188.804688 277.015625 193.273438 C 279.742188 202.195312 276.089844 208.882812 270.582031 213.65625 C 268.8125 215.1875 266.847656 216.503906 264.878906 217.625 C 265.757812 218.613281 266.6875 220.039062 267.148438 221.964844 C 267.65625 224.085938 267.640625 226.910156 265.976562 230.503906 C 262.820312 237.289062 252.644531 248.058594 224.535156 263.46875 C 222.78125 264.429688 220.582031 263.789062 219.621094 262.035156 C 218.660156 260.28125 219.300781 258.082031 221.054688 257.117188 C 246.792969 243.003906 256.523438 233.664062 259.40625 227.449219 C 260.15625 225.839844 260.335938 224.601562 260.105469 223.648438 C 259.867188 222.640625 259.164062 222.117188 258.953125 221.972656 C 258.910156 221.945312 258.867188 221.914062 258.824219 221.882812 C 258.761719 221.875 258.691406 221.875 258.617188 221.863281 C 258.019531 221.792969 257.296875 221.820312 256.46875 221.914062 C 253.226562 222.265625 248.753906 223.546875 243.667969 225.328125 C 227.035156 231.152344 204.226562 242.359375 195.15625 247.175781 C 194.128906 247.722656 193.179688 248.257812 192.519531 248.636719 C 191.570312 251.804688 191.617188 254.445312 192.261719 256.609375 C 193.769531 261.6875 198.332031 264.039062 198.976562 264.351562 C 221.976562 273.265625 248.753906 271.574219 272.613281 266.453125 C 306.945312 259.078125 335.324219 244.488281 338.34375 242.902344 C 364.808594 222.402344 365.75 193.15625 360.359375 171.207031 C 356.796875 156.707031 350.566406 145.324219 346.886719 141.960938 C 336.242188 132.21875 328.453125 131.972656 320.078125 129.453125 C 282.292969 118.488281 248.679688 103.640625 246.265625 102.566406 C 236.363281 99.046875 227.101562 105.074219 226.121094 105.742188 C 219.207031 111.304688 213.449219 119.539062 206.933594 126.402344 C 203.585938 129.925781 200.046875 133.101562 196.128906 135.515625 C 195.964844 135.6875 195.78125 135.847656 195.574219 135.988281 C 195.574219 135.988281 195.574219 135.988281 195.574219 135.992188 C 195.574219 135.992188 179.746094 146.871094 173.570312 158.957031 Z M 342.355469 248.949219 L 342.363281 248.941406 C 342.347656 248.953125 342.347656 248.953125 342.347656 248.953125 Z M 342.28125 248.996094 C 342.265625 249.007812 342.273438 249.003906 342.273438 249.003906 Z M 342.238281 249.023438 L 342.242188 249.019531 L 342.242188 249.023438 C 342.242188 249.023438 342.238281 249.023438 342.238281 249.023438 Z M 342.171875 249.066406 L 342.175781 249.0625 C 342.160156 249.070312 342.160156 249.070312 342.160156 249.070312 Z M 171.089844 213.085938 C 168.421875 220.492188 168.714844 226.070312 170.722656 230.261719 C 172.652344 234.285156 176.078125 236.949219 179.4375 238.761719 C 183.433594 240.910156 187.398438 241.859375 189.171875 242.207031 C 189.867188 241.808594 190.734375 241.328125 191.757812 240.78125 C 201.019531 235.859375 224.300781 224.4375 241.277344 218.492188 C 244.589844 217.332031 247.675781 216.382812 250.394531 215.714844 C 250.5 215.679688 250.601562 215.648438 250.707031 215.621094 C 250.707031 215.621094 259.726562 213.480469 265.839844 208.183594 C 269.3125 205.171875 271.8125 201.015625 270.09375 195.394531 C 269.832031 194.542969 269.132812 193.953125 268.25 193.449219 C 266.816406 192.628906 264.933594 192.109375 262.773438 191.765625 C 251.351562 189.96875 232.96875 193.476562 223.3125 197.929688 C 222.960938 201.558594 222.628906 203.925781 222.628906 203.925781 C 222.625 203.957031 222.621094 203.988281 222.613281 204.019531 L 222.5625 204.269531 L 222.539062 204.359375 C 214.660156 233.507812 201.449219 231.742188 195.542969 227.332031 C 193.742188 225.980469 192.398438 224.261719 191.652344 222.691406 C 191.046875 221.417969 190.820312 220.1875 190.863281 219.164062 C 190.523438 214.96875 189.53125 210.429688 188.28125 206.0625 C 180.160156 208.382812 173.597656 211.722656 171.089844 213.085938 Z M 19.601562 194.425781 C 15.480469 196.144531 12.667969 197.988281 10.957031 199.929688 C 9.4375 201.65625 8.847656 203.429688 9.042969 205.199219 C 9.359375 208.007812 11.425781 210.523438 13.894531 212.398438 C 16.453125 214.34375 19.53125 215.644531 22.097656 215.527344 C 22.113281 215.527344 22.132812 215.527344 22.152344 215.523438 L 164.070312 211.214844 C 164.292969 210.570312 164.535156 209.917969 164.796875 209.25 C 165.089844 208.503906 165.625 207.875 166.316406 207.460938 C 166.316406 207.460938 174.785156 202.417969 186.074219 199.160156 C 183.644531 192.25 181.0625 186.648438 180.242188 184.910156 C 163.453125 168.371094 166.53125 157.066406 166.53125 157.066406 C 166.542969 157.023438 166.554688 156.980469 166.570312 156.941406 L 166.734375 156.472656 L 166.800781 156.3125 C 169.65625 150.433594 174.597656 144.75 179.320312 140.179688 C 137.5625 133.015625 49.113281 121.308594 41.875 120.351562 C 34.613281 121.347656 30.582031 124.203125 29.21875 127.910156 C 27.292969 133.132812 30.742188 139.371094 36.113281 141.054688 C 37.089844 141.359375 104.011719 154.535156 104.011719 154.535156 C 104.035156 154.542969 104.058594 154.546875 104.082031 154.554688 L 104.285156 154.601562 L 104.355469 154.621094 C 117.453125 158.558594 158.699219 167.933594 158.699219 167.933594 C 158.746094 167.945312 158.792969 167.957031 158.839844 167.972656 L 159.230469 168.101562 L 159.363281 168.15625 C 164.039062 170.226562 166.621094 172.613281 167.765625 174.667969 C 169.019531 176.914062 168.992188 179.066406 168.113281 180.957031 C 167.394531 182.503906 165.980469 183.964844 163.808594 184.996094 C 161.5 186.09375 158.15625 186.765625 154.070312 186.59375 C 143.175781 186.023438 116.484375 187.328125 116.484375 187.328125 C 116.457031 187.328125 116.433594 187.332031 116.40625 187.332031 L 116.191406 187.328125 L 116.117188 187.328125 C 76.164062 185.210938 24.617188 193.585938 19.601562 194.425781 Z M 19.601562 194.425781 " fill-opacity="1" fill-rule="evenodd"/></svg>