<svg xmlns="http://www.w3.org/2000/svg" xmlns:xlink="http://www.w3.org/1999/xlink" width="500" zoomAndPan="magnify" viewBox="0 0 375 374.999991" height="500" preserveAspectRatio="xMidYMid meet" version="1.0"><path fill="#fff6cb" d="M 17.550781 208.964844 L 15.335938 190.878906 L 18.320312 170.210938 L 27.996094 143.28125 L 35.71875 135.582031 L 47.609375 128.023438 L 65.96875 124 L 80.507812 119.589844 L 98.320312 112.015625 L 128.445312 100.523438 L 141.960938 97.660156 L 153.886719 101.886719 L 167.523438 115.019531 L 180.996094 129.71875 L 192.523438 136.007812 L 208.273438 134.707031 L 248.863281 127.761719 L 303.800781 119.859375 L 334.742188 116.347656 L 343.21875 118.554688 L 349.878906 125.398438 L 350.8125 132.09375 L 346.304688 140.289062 L 336.542969 144.445312 L 319.480469 147.558594 L 297.832031 152.503906 L 273.394531 156.597656 L 248.707031 163.4375 L 227.9375 167.878906 L 216.839844 170.210938 L 212.601562 177.746094 L 219.082031 181.8125 L 237.65625 181.34375 L 275.9375 181.128906 L 330.230469 185.65625 L 353.609375 189.164062 L 364.539062 193.199219 L 369.707031 200.015625 L 367.863281 208.070312 L 359.238281 215.566406 L 345.9375 216.488281 L 212.601562 212.445312 L 212.601562 218.042969 L 208.273438 231.03125 L 197.570312 240.445312 L 188.976562 243.035156 L 190.390625 251.8125 L 184.058594 262.503906 L 170.226562 267.382812 L 145.550781 270.503906 L 108.871094 266.652344 L 73.679688 255.773438 L 46.949219 245.550781 L 30.34375 233.015625 Z M 17.550781 208.964844 " fill-opacity="1" fill-rule="evenodd"/><path fill="#363636" d="M 39.238281 245.757812 L 39.289062 245.789062 C 39.289062 245.789062 39.304688 245.796875 39.285156 245.785156 L 39.308594 245.804688 C 39.378906 245.839844 39.445312 245.878906 39.5 245.910156 C 40.628906 246.507812 70.105469 262.0625 106.0625 269.777344 C 130.824219 275.085938 158.613281 276.632812 182.476562 267.347656 C 182.53125 267.328125 182.585938 267.308594 182.640625 267.28125 C 182.640625 267.28125 190.664062 263.699219 193.1875 255.214844 C 194 252.484375 194.269531 249.234375 193.460938 245.417969 C 195.867188 244.777344 199.085938 243.695312 202.320312 241.953125 C 206.832031 239.527344 211.324219 235.84375 213.914062 230.445312 C 215.773438 226.570312 216.695312 221.78125 215.824219 215.871094 L 352.988281 220.03125 C 356.917969 220.210938 361.738281 218.503906 365.660156 215.527344 C 369.671875 212.484375 372.667969 208.167969 373.179688 203.609375 C 373.84375 197.675781 370.578125 190.632812 358.089844 185.546875 C 357.851562 185.449219 357.601562 185.378906 357.347656 185.335938 C 357.347656 185.335938 302.785156 176.035156 260.882812 178.214844 C 258.542969 178.101562 233.847656 176.960938 223.507812 177.5 C 220.941406 177.609375 218.800781 177.308594 217.335938 176.613281 C 217.082031 176.496094 216.835938 176.40625 216.667969 176.273438 C 216.71875 176.199219 216.773438 176.117188 216.820312 176.058594 C 217.617188 175.070312 219.082031 174.121094 221.230469 173.148438 C 225.242188 172.234375 262.0625 163.816406 274.488281 160.113281 C 278.117188 159.398438 340.746094 147.035156 341.683594 146.742188 C 350.679688 143.929688 356.214844 133.375 352.992188 124.636719 C 350.953125 119.101562 345.402344 113.957031 334.351562 112.585938 C 334.050781 112.550781 333.75 112.550781 333.449219 112.589844 C 333.449219 112.589844 240.847656 124.757812 197.988281 132.097656 C 189.273438 131.898438 182.929688 126.820312 177.132812 120.726562 C 170.488281 113.734375 164.5625 105.386719 157.496094 99.746094 C 157.441406 99.703125 157.382812 99.65625 157.324219 99.617188 C 157.324219 99.617188 144.539062 90.683594 130.878906 95.621094 C 130.792969 95.652344 130.714844 95.683594 130.632812 95.71875 C 130.632812 95.71875 96.996094 110.777344 58.976562 121.800781 C 49.832031 124.546875 41.46875 125.039062 29.886719 135.621094 C 25.8125 139.347656 18.519531 151.765625 14.570312 167.824219 C 8.710938 191.652344 10.03125 223.347656 38.929688 245.539062 C 38.992188 245.589844 39.054688 245.636719 39.101562 245.667969 Z M 204.714844 157.511719 C 204.8125 159.347656 204.347656 167.078125 192.765625 178.300781 C 192.46875 178.585938 192.226562 178.921875 192.046875 179.289062 C 192.046875 179.289062 192.042969 179.289062 192.042969 179.289062 C 192.042969 179.289062 181.847656 200.234375 180.644531 216.21875 C 180.632812 216.40625 180.632812 216.589844 180.648438 216.777344 C 180.585938 216.890625 180.453125 217.128906 180.351562 217.289062 C 179.773438 218.203125 178.757812 219.140625 177.480469 219.597656 C 175.902344 220.160156 173.988281 219.773438 171.980469 217.878906 C 169 215.0625 166.121094 209.644531 163.585938 200.347656 C 163.242188 197.941406 160.195312 176.011719 163.921875 166.195312 C 164.296875 165.199219 164.207031 164.089844 163.675781 163.167969 C 163.144531 162.246094 162.226562 161.609375 161.183594 161.4375 C 161.183594 161.4375 140.902344 157.941406 129.992188 134.710938 C 129.160156 132.933594 127.042969 132.171875 125.265625 133.003906 C 123.492188 133.835938 122.730469 135.949219 123.5625 137.722656 C 133.121094 158.078125 149.023438 165.195312 156.207031 167.460938 C 154.980469 173.320312 154.96875 181.117188 155.316406 187.789062 C 144.324219 183.71875 127.183594 180.90625 116.097656 182.652344 C 109.238281 183.730469 104.570312 186.757812 103.230469 191.136719 C 100.554688 199.878906 104.140625 206.433594 109.542969 211.109375 C 111.277344 212.609375 113.207031 213.902344 115.136719 214.996094 C 114.273438 215.964844 113.363281 217.363281 112.914062 219.25 C 112.410156 221.328125 112.429688 224.09375 114.0625 227.613281 C 117.15625 234.265625 127.140625 244.816406 154.71875 259.917969 C 156.4375 260.859375 158.597656 260.230469 159.539062 258.507812 C 160.480469 256.792969 159.851562 254.636719 158.132812 253.695312 C 132.878906 239.867188 123.335938 230.714844 120.507812 224.625 C 119.773438 223.046875 119.597656 221.832031 119.820312 220.902344 C 120.054688 219.914062 120.742188 219.398438 120.953125 219.257812 C 120.992188 219.230469 121.035156 219.199219 121.078125 219.171875 C 121.140625 219.160156 121.207031 219.160156 121.28125 219.152344 C 121.867188 219.082031 122.574219 219.109375 123.390625 219.199219 C 126.570312 219.542969 130.957031 220.800781 135.945312 222.546875 C 152.265625 228.25 174.640625 239.230469 183.539062 243.953125 C 184.542969 244.488281 185.476562 245.011719 186.125 245.382812 C 187.054688 248.488281 187.007812 251.074219 186.378906 253.195312 C 184.898438 258.171875 180.421875 260.472656 179.789062 260.78125 C 157.226562 269.515625 130.957031 267.859375 107.550781 262.839844 C 73.871094 255.613281 46.027344 241.316406 43.066406 239.765625 C 17.101562 219.679688 16.179688 191.019531 21.46875 169.515625 C 24.960938 155.308594 31.074219 144.15625 34.683594 140.859375 C 45.128906 131.3125 52.769531 131.074219 60.988281 128.605469 C 98.050781 117.859375 131.03125 103.308594 133.398438 102.257812 C 143.113281 98.8125 152.199219 104.714844 153.164062 105.371094 C 159.945312 110.820312 165.59375 118.890625 171.984375 125.613281 C 175.269531 129.066406 178.742188 132.175781 182.582031 134.542969 C 182.742188 134.710938 182.925781 134.867188 183.125 135.007812 C 183.128906 135.007812 183.128906 135.007812 183.128906 135.011719 C 183.128906 135.011719 198.65625 145.667969 204.714844 157.511719 Z M 39.132812 245.6875 L 39.121094 245.679688 C 39.140625 245.691406 39.136719 245.691406 39.136719 245.691406 Z M 39.203125 245.734375 C 39.21875 245.746094 39.210938 245.742188 39.210938 245.742188 Z M 39.246094 245.765625 L 39.238281 245.757812 L 39.242188 245.761719 C 39.242188 245.761719 39.246094 245.761719 39.246094 245.765625 Z M 39.308594 245.804688 L 39.308594 245.800781 C 39.324219 245.808594 39.320312 245.808594 39.320312 245.808594 Z M 207.148438 210.550781 C 209.765625 217.808594 209.480469 223.269531 207.507812 227.378906 C 205.617188 231.320312 202.253906 233.933594 198.957031 235.707031 C 195.039062 237.8125 191.148438 238.742188 189.410156 239.082031 C 188.726562 238.691406 187.875 238.222656 186.871094 237.6875 C 177.789062 232.863281 154.945312 221.671875 138.292969 215.84375 C 135.042969 214.710938 132.011719 213.78125 129.347656 213.125 C 129.246094 213.089844 129.144531 213.058594 129.039062 213.035156 C 129.039062 213.035156 120.191406 210.933594 114.195312 205.746094 C 110.789062 202.796875 108.335938 198.722656 110.023438 193.214844 C 110.277344 192.382812 110.964844 191.804688 111.832031 191.308594 C 113.238281 190.503906 115.085938 189.996094 117.203125 189.660156 C 128.40625 187.898438 146.441406 191.335938 155.914062 195.699219 C 156.257812 199.253906 156.585938 201.574219 156.585938 201.574219 C 156.589844 201.605469 156.59375 201.636719 156.601562 201.667969 L 156.652344 201.910156 L 156.671875 201.996094 C 164.402344 230.558594 177.367188 228.828125 183.160156 224.507812 C 184.925781 223.183594 186.242188 221.5 186.972656 219.964844 C 187.566406 218.714844 187.792969 217.507812 187.75 216.503906 C 188.082031 212.394531 189.054688 207.945312 190.28125 203.667969 C 198.25 205.941406 204.6875 209.210938 207.148438 210.550781 Z M 355.761719 192.265625 C 359.804688 193.949219 362.5625 195.757812 364.246094 197.660156 C 365.734375 199.351562 366.3125 201.085938 366.121094 202.824219 C 365.8125 205.574219 363.785156 208.039062 361.363281 209.878906 C 358.851562 211.78125 355.832031 213.058594 353.316406 212.941406 C 353.296875 212.941406 353.277344 212.941406 353.261719 212.9375 L 214.035156 208.71875 C 213.816406 208.085938 213.578125 207.445312 213.324219 206.792969 C 213.035156 206.058594 212.507812 205.441406 211.832031 205.039062 C 211.832031 205.039062 203.519531 200.097656 192.449219 196.90625 C 194.832031 190.132812 197.363281 184.644531 198.167969 182.945312 C 214.640625 166.738281 211.617188 155.660156 211.617188 155.660156 C 211.609375 155.617188 211.597656 155.578125 211.582031 155.539062 L 211.421875 155.078125 L 211.355469 154.921875 C 208.554688 149.160156 203.707031 143.589844 199.074219 139.113281 C 240.039062 132.09375 326.808594 120.621094 333.914062 119.6875 C 341.035156 120.660156 344.988281 123.460938 346.328125 127.089844 C 348.214844 132.207031 344.832031 138.320312 339.5625 139.96875 C 338.609375 140.269531 272.953125 153.179688 272.953125 153.179688 C 272.929688 153.1875 272.90625 153.191406 272.882812 153.199219 L 272.6875 153.246094 L 272.617188 153.265625 C 259.769531 157.121094 219.304688 166.308594 219.304688 166.308594 C 219.257812 166.320312 219.210938 166.332031 219.167969 166.347656 L 218.78125 166.472656 L 218.652344 166.527344 C 214.066406 168.554688 211.53125 170.894531 210.410156 172.90625 C 209.179688 175.109375 209.203125 177.214844 210.066406 179.066406 C 210.773438 180.585938 212.160156 182.015625 214.289062 183.023438 C 216.558594 184.101562 219.835938 184.761719 223.84375 184.589844 C 234.53125 184.03125 260.71875 185.3125 260.71875 185.3125 C 260.742188 185.3125 260.769531 185.316406 260.792969 185.316406 L 261.003906 185.3125 L 261.078125 185.3125 C 300.273438 183.234375 350.839844 191.445312 355.761719 192.265625 Z M 355.761719 192.265625 " fill-opacity="1" fill-rule="evenodd"/></svg>