<svg xmlns="http://www.w3.org/2000/svg" xmlns:xlink="http://www.w3.org/1999/xlink" width="500" zoomAndPan="magnify" viewBox="0 0 375 374.999991" height="500" preserveAspectRatio="xMidYMid meet" version="1.0"><defs><clipPath id="d94397997c"><path d="M 59.765625 0.269531 L 315.496094 0.269531 L 315.496094 374.6875 L 59.765625 374.6875 Z M 59.765625 0.269531 " clip-rule="nonzero"/></clipPath></defs><g clip-path="url(#d94397997c)"><path fill="#fc1403" d="M 136.269531 136.539062 C 135.917969 135.214844 135.699219 134.460938 135.519531 133.695312 C 131.347656 116.289062 127.1875 98.886719 123.019531 81.480469 C 122.015625 77.285156 121.003906 76.417969 116.738281 76.441406 C 99.753906 76.527344 82.773438 76.621094 65.789062 76.78125 C 59.585938 76.839844 58.902344 77.671875 60.503906 83.601562 C 67.769531 110.488281 74.996094 137.378906 82.453125 164.207031 C 90.703125 193.898438 99.21875 223.523438 107.539062 253.195312 C 108.546875 256.785156 110.539062 258.878906 114.253906 259.449219 C 116.636719 259.8125 118.984375 260.378906 121.332031 260.933594 C 127.46875 262.398438 133.605469 263.910156 139.972656 265.457031 C 136.925781 273.417969 133.988281 281.078125 130.964844 288.972656 C 125.507812 284.144531 120.296875 279.535156 114.933594 274.792969 C 98.964844 308.175781 83.121094 341.292969 67.273438 374.414062 C 67.441406 374.503906 67.609375 374.59375 67.773438 374.6875 C 83.367188 353.882812 98.960938 333.082031 114.746094 312.019531 C 119.390625 319.050781 123.792969 325.714844 128.351562 332.613281 C 144.285156 313.488281 159.960938 294.667969 175.765625 275.703125 C 179.136719 279.785156 182.265625 283.660156 185.488281 287.453125 C 189.851562 292.601562 194.246094 297.722656 198.71875 302.773438 C 200.6875 304.992188 203.242188 305.859375 206.289062 305.769531 C 212.15625 305.589844 218.03125 305.652344 223.902344 305.648438 C 240.804688 305.632812 257.710938 305.558594 274.617188 305.695312 C 279.410156 305.734375 283.121094 304.230469 286.214844 300.535156 C 291.484375 294.25 296.941406 288.121094 302.414062 282.011719 C 304.015625 280.222656 304.8125 278.371094 304.730469 275.945312 C 304.023438 254.175781 303.40625 232.402344 302.667969 210.636719 C 302.621094 209.191406 302.082031 207.585938 301.28125 206.378906 C 298.710938 202.5 295.914062 198.773438 293.117188 194.863281 C 295.109375 192.75 297.355469 190.75 299.113281 188.386719 C 300.441406 186.597656 301.910156 184.382812 302.007812 182.296875 C 302.5 171.703125 302.535156 161.085938 302.804688 150.484375 C 302.863281 148.316406 302.253906 146.554688 300.65625 145.105469 C 294.519531 139.546875 288.390625 133.988281 282.261719 128.425781 C 277.957031 124.523438 272.683594 122.796875 267.078125 122.382812 C 259.457031 121.816406 251.808594 121.683594 244.167969 121.402344 C 242.214844 121.328125 240.257812 121.386719 237.839844 121.386719 C 243.253906 111.570312 248.363281 102.308594 253.679688 92.671875 C 255.949219 97.628906 258.054688 102.226562 260.332031 107.199219 C 278.882812 71.3125 297.1875 35.898438 315.496094 0.492188 C 315.375 0.417969 315.246094 0.34375 315.125 0.269531 C 297.707031 23.835938 280.292969 47.398438 262.707031 71.195312 C 257.269531 64.738281 252.070312 58.554688 246.667969 52.136719 C 232.375 74.003906 218.253906 95.605469 204.132812 117.210938 C 204.003906 116.285156 204.195312 115.523438 204.410156 114.765625 C 207.59375 103.40625 210.832031 92.0625 213.9375 80.679688 C 215.214844 75.976562 213.78125 74.070312 208.953125 74.066406 C 192.53125 74.042969 176.109375 74.101562 159.6875 74.203125 C 155.445312 74.226562 154.574219 75.035156 153.386719 79.03125 C 149.710938 91.417969 146.035156 103.808594 142.347656 116.195312 C 140.386719 122.796875 138.402344 129.394531 136.269531 136.539062 " fill-opacity="1" fill-rule="nonzero"/><path fill="#fc1403" d="M 135.027344 176.253906 C 134.886719 176.242188 134.746094 176.230469 134.605469 176.21875 C 131.53125 162.277344 128.457031 148.332031 125.378906 134.390625 C 122.191406 119.980469 119.046875 105.5625 115.789062 91.164062 C 114.699219 86.34375 111.933594 84.316406 106.996094 84.3125 C 98.304688 84.304688 89.609375 84.296875 80.917969 84.3125 C 74.953125 84.328125 71.644531 88.632812 73.160156 94.433594 C 83.84375 135.347656 94.539062 176.261719 105.234375 217.167969 C 107.769531 226.875 110.292969 236.582031 112.851562 246.28125 C 114.148438 251.195312 117.222656 253.53125 122.265625 253.53125 C 131.925781 253.527344 141.585938 253.539062 151.242188 253.507812 C 155.730469 253.496094 159.050781 250.875 160.1875 246.53125 C 173.4375 195.832031 186.683594 145.136719 199.925781 94.4375 C 201.464844 88.539062 198.269531 84.332031 192.210938 84.316406 C 183.433594 84.292969 174.660156 84.300781 165.886719 84.3125 C 161.019531 84.324219 158.53125 86.175781 157.320312 90.800781 C 152.460938 109.347656 147.628906 127.902344 142.789062 146.453125 C 140.199219 156.386719 137.613281 166.320312 135.027344 176.253906 Z M 253.691406 174.46875 C 253.691406 177.144531 253.59375 179.550781 253.710938 181.941406 C 253.9375 186.546875 255.949219 188.507812 260.527344 188.535156 C 268.738281 188.585938 276.953125 188.582031 285.164062 188.527344 C 289.730469 188.496094 292.507812 185.667969 292.535156 181.085938 C 292.578125 173.609375 292.566406 166.128906 292.535156 158.648438 C 292.523438 155.308594 291.417969 152.359375 289.082031 149.902344 C 285.152344 145.761719 281.246094 141.601562 277.300781 137.476562 C 275.152344 135.230469 272.507812 133.914062 269.382812 133.910156 C 250.945312 133.878906 232.511719 133.890625 214.074219 133.90625 C 211.191406 133.910156 208.742188 135.035156 206.753906 137.085938 C 202.667969 141.304688 198.613281 145.546875 194.5625 149.796875 C 192.175781 152.308594 191.09375 155.339844 191.09375 158.789062 C 191.101562 175.917969 191.113281 193.046875 191.082031 210.175781 C 191.078125 213.734375 192.226562 216.761719 194.695312 219.328125 C 198.207031 222.980469 201.789062 226.574219 205.140625 230.367188 C 208.265625 233.902344 212.054688 235.273438 216.695312 235.230469 C 228.125 235.113281 239.5625 235.226562 250.992188 235.152344 C 252.992188 235.136719 253.71875 235.828125 253.6875 237.804688 C 253.605469 242.867188 253.597656 247.9375 253.691406 253 C 253.722656 254.769531 253.21875 255.363281 251.363281 255.328125 C 245.40625 255.207031 239.449219 255.289062 233.492188 255.292969 C 232.402344 255.292969 231.3125 255.292969 229.902344 255.292969 C 229.902344 252.894531 230.042969 250.886719 229.875 248.902344 C 229.53125 244.925781 227.054688 242.570312 223.082031 242.539062 C 214.867188 242.46875 206.65625 242.460938 198.445312 242.535156 C 193.953125 242.578125 191.121094 245.542969 191.105469 250.046875 C 191.078125 257.042969 191.121094 264.039062 191.085938 271.035156 C 191.070312 274.691406 192.355469 277.753906 194.882812 280.371094 C 198.683594 284.304688 202.445312 288.273438 206.199219 292.25 C 208.539062 294.722656 211.410156 295.988281 214.789062 295.992188 C 232.742188 296.011719 250.695312 296.007812 268.648438 295.992188 C 272.023438 295.988281 274.921875 294.78125 277.277344 292.324219 C 281.171875 288.257812 285.085938 284.214844 288.964844 280.136719 C 291.339844 277.644531 292.558594 274.683594 292.558594 271.203125 C 292.535156 253.988281 292.535156 236.78125 292.554688 219.570312 C 292.558594 215.914062 291.265625 212.875 288.710938 210.265625 C 285.050781 206.53125 281.441406 202.746094 277.886719 198.917969 C 275.273438 196.101562 272.179688 194.6875 268.292969 194.710938 C 256.457031 194.78125 244.621094 194.691406 232.785156 194.78125 C 230.71875 194.796875 229.867188 194.191406 229.886719 192.089844 C 229.9375 187.105469 229.832031 182.121094 229.847656 177.132812 C 229.855469 175.40625 230.816406 174.472656 232.585938 174.472656 C 239.507812 174.46875 246.425781 174.46875 253.691406 174.46875 Z M 136.269531 136.539062 C 138.402344 129.394531 140.386719 122.796875 142.347656 116.195312 C 146.035156 103.808594 149.710938 91.417969 153.386719 79.03125 C 154.574219 75.035156 155.445312 74.226562 159.6875 74.203125 C 176.109375 74.101562 192.53125 74.042969 208.953125 74.066406 C 213.78125 74.070312 215.214844 75.976562 213.9375 80.679688 C 210.832031 92.0625 207.59375 103.40625 204.410156 114.765625 C 204.195312 115.523438 204.003906 116.285156 204.132812 117.210938 C 218.253906 95.605469 232.375 74.003906 246.667969 52.136719 C 252.070312 58.554688 257.269531 64.738281 262.707031 71.195312 C 280.292969 47.398438 297.707031 23.835938 315.125 0.269531 C 315.246094 0.34375 315.375 0.417969 315.496094 0.492188 C 297.1875 35.898438 278.882812 71.3125 260.332031 107.199219 C 258.054688 102.226562 255.949219 97.628906 253.679688 92.671875 C 248.363281 102.308594 243.253906 111.570312 237.839844 121.386719 C 240.257812 121.386719 242.214844 121.328125 244.167969 121.402344 C 251.808594 121.683594 259.457031 121.816406 267.078125 122.382812 C 272.683594 122.796875 277.957031 124.523438 282.261719 128.425781 C 288.390625 133.988281 294.519531 139.546875 300.65625 145.105469 C 302.253906 146.554688 302.863281 148.316406 302.804688 150.484375 C 302.535156 161.085938 302.5 171.703125 302.007812 182.296875 C 301.910156 184.382812 300.441406 186.597656 299.113281 188.386719 C 297.355469 190.75 295.109375 192.75 293.117188 194.863281 C 295.914062 198.773438 298.710938 202.5 301.28125 206.378906 C 302.082031 207.585938 302.621094 209.191406 302.667969 210.636719 C 303.40625 232.402344 304.023438 254.175781 304.730469 275.945312 C 304.8125 278.371094 304.015625 280.222656 302.414062 282.011719 C 296.941406 288.121094 291.484375 294.25 286.214844 300.535156 C 283.121094 304.230469 279.410156 305.734375 274.617188 305.695312 C 257.710938 305.558594 240.804688 305.632812 223.902344 305.648438 C 218.03125 305.652344 212.15625 305.589844 206.289062 305.769531 C 203.242188 305.859375 200.6875 304.992188 198.71875 302.773438 C 194.246094 297.722656 189.851562 292.601562 185.488281 287.453125 C 182.265625 283.660156 179.136719 279.785156 175.765625 275.703125 C 159.960938 294.667969 144.285156 313.488281 128.351562 332.613281 C 123.792969 325.714844 119.390625 319.050781 114.746094 312.019531 C 98.960938 333.082031 83.367188 353.882812 67.773438 374.6875 C 67.609375 374.59375 67.441406 374.503906 67.273438 374.414062 C 83.121094 341.292969 98.964844 308.175781 114.933594 274.792969 C 120.296875 279.535156 125.507812 284.144531 130.964844 288.972656 C 133.988281 281.078125 136.925781 273.417969 139.972656 265.457031 C 133.605469 263.910156 127.46875 262.398438 121.332031 260.933594 C 118.984375 260.378906 116.636719 259.8125 114.253906 259.449219 C 110.539062 258.878906 108.546875 256.785156 107.539062 253.195312 C 99.21875 223.523438 90.703125 193.898438 82.453125 164.207031 C 74.996094 137.378906 67.769531 110.488281 60.503906 83.601562 C 58.902344 77.671875 59.585938 76.839844 65.789062 76.78125 C 82.773438 76.621094 99.753906 76.527344 116.738281 76.441406 C 121.003906 76.417969 122.015625 77.285156 123.019531 81.480469 C 127.1875 98.886719 131.347656 116.289062 135.519531 133.695312 C 135.699219 134.460938 135.917969 135.214844 136.269531 136.539062 " fill-opacity="1" fill-rule="nonzero"/></g><path fill="#15a0ea" d="M 221.9375 250.625 C 214.574219 250.625 207.511719 250.589844 200.453125 250.707031 C 200.027344 250.714844 199.269531 251.882812 199.265625 252.523438 C 199.175781 258.792969 199.136719 265.066406 199.285156 271.332031 C 199.3125 272.480469 199.984375 273.824219 200.777344 274.703125 C 204.328125 278.636719 207.953125 282.515625 211.734375 286.230469 C 212.648438 287.132812 214.238281 287.796875 215.523438 287.804688 C 233.066406 287.902344 250.613281 287.894531 268.160156 287.792969 C 269.367188 287.785156 270.859375 287.136719 271.722656 286.285156 C 275.566406 282.515625 279.324219 278.644531 282.898438 274.625 C 283.804688 273.605469 284.359375 271.90625 284.367188 270.515625 C 284.46875 253.710938 284.476562 236.90625 284.347656 220.105469 C 284.335938 218.601562 283.523438 216.820312 282.515625 215.664062 C 279.304688 211.960938 275.785156 208.53125 272.472656 204.917969 C 271.113281 203.4375 269.601562 202.816406 267.59375 202.824219 C 255.921875 202.882812 244.246094 202.683594 232.582031 202.945312 C 229.058594 203.023438 226.484375 202.0625 224.601562 199.289062 C 223.546875 197.742188 222.179688 196 222.078125 194.28125 C 221.742188 188.511719 221.769531 182.710938 221.921875 176.929688 C 222.0625 171.429688 227.542969 166.375 233.074219 166.367188 C 241.765625 166.351562 250.460938 166.359375 259.152344 166.367188 C 259.929688 166.371094 260.710938 166.460938 261.753906 166.523438 C 261.753906 171.28125 261.753906 175.820312 261.753906 180.5625 C 269.019531 180.5625 276.007812 180.554688 282.996094 180.566406 C 284.660156 180.570312 284.421875 179.371094 284.421875 178.363281 C 284.433594 172.007812 284.503906 165.65625 284.367188 159.308594 C 284.335938 157.976562 283.839844 156.363281 282.976562 155.390625 C 279.351562 151.304688 275.578125 147.339844 271.6875 143.507812 C 270.769531 142.601562 269.183594 141.921875 267.894531 141.917969 C 250.589844 141.804688 233.285156 141.777344 215.980469 141.914062 C 214.4375 141.921875 212.578125 142.886719 211.421875 143.988281 C 207.765625 147.484375 204.285156 151.179688 200.929688 154.972656 C 200.007812 156.011719 199.289062 157.644531 199.277344 159.007812 C 199.171875 175.972656 199.175781 192.9375 199.285156 209.902344 C 199.296875 211.269531 199.976562 212.917969 200.894531 213.949219 C 204.359375 217.855469 207.972656 221.644531 211.71875 225.285156 C 212.6875 226.222656 214.339844 226.921875 215.6875 226.933594 C 227.515625 227.058594 239.351562 226.992188 251.183594 227.011719 C 255.898438 227.019531 261.664062 232.792969 261.6875 237.515625 C 261.714844 242.582031 261.699219 247.644531 261.691406 252.710938 C 261.683594 257.710938 256.140625 263.304688 251.15625 263.308594 C 242.222656 263.328125 233.289062 263.320312 224.355469 263.308594 C 223.589844 263.308594 222.828125 263.21875 221.9375 263.164062 C 221.9375 258.933594 221.9375 255.007812 221.9375 250.625 Z M 253.691406 174.46875 C 246.425781 174.46875 239.507812 174.46875 232.585938 174.472656 C 230.816406 174.472656 229.855469 175.40625 229.847656 177.132812 C 229.832031 182.121094 229.9375 187.105469 229.886719 192.089844 C 229.867188 194.191406 230.71875 194.796875 232.785156 194.78125 C 244.621094 194.691406 256.457031 194.78125 268.292969 194.710938 C 272.179688 194.6875 275.273438 196.101562 277.886719 198.917969 C 281.441406 202.746094 285.050781 206.53125 288.710938 210.265625 C 291.265625 212.875 292.558594 215.914062 292.554688 219.570312 C 292.535156 236.78125 292.535156 253.988281 292.558594 271.203125 C 292.558594 274.683594 291.339844 277.644531 288.964844 280.136719 C 285.085938 284.214844 281.171875 288.257812 277.277344 292.324219 C 274.921875 294.78125 272.023438 295.988281 268.648438 295.992188 C 250.695312 296.007812 232.742188 296.011719 214.789062 295.992188 C 211.410156 295.988281 208.539062 294.722656 206.199219 292.25 C 202.445312 288.273438 198.683594 284.304688 194.882812 280.371094 C 192.355469 277.753906 191.070312 274.691406 191.085938 271.035156 C 191.121094 264.039062 191.078125 257.042969 191.105469 250.046875 C 191.121094 245.542969 193.953125 242.578125 198.445312 242.535156 C 206.65625 242.460938 214.867188 242.46875 223.082031 242.539062 C 227.054688 242.570312 229.53125 244.925781 229.875 248.902344 C 230.042969 250.886719 229.902344 252.894531 229.902344 255.292969 C 231.3125 255.292969 232.402344 255.292969 233.492188 255.292969 C 239.449219 255.289062 245.40625 255.207031 251.363281 255.328125 C 253.21875 255.363281 253.722656 254.769531 253.691406 253 C 253.597656 247.9375 253.605469 242.867188 253.6875 237.804688 C 253.71875 235.828125 252.992188 235.136719 250.992188 235.152344 C 239.5625 235.226562 228.125 235.113281 216.695312 235.230469 C 212.054688 235.273438 208.265625 233.902344 205.140625 230.367188 C 201.789062 226.574219 198.207031 222.980469 194.695312 219.328125 C 192.226562 216.761719 191.078125 213.734375 191.082031 210.175781 C 191.113281 193.046875 191.101562 175.917969 191.09375 158.789062 C 191.09375 155.339844 192.175781 152.308594 194.5625 149.796875 C 198.613281 145.546875 202.667969 141.304688 206.753906 137.085938 C 208.742188 135.035156 211.191406 133.910156 214.074219 133.90625 C 232.511719 133.890625 250.945312 133.878906 269.382812 133.910156 C 272.507812 133.914062 275.152344 135.230469 277.300781 137.476562 C 281.246094 141.601562 285.152344 145.761719 289.082031 149.902344 C 291.417969 152.359375 292.523438 155.308594 292.535156 158.648438 C 292.566406 166.128906 292.578125 173.609375 292.535156 181.085938 C 292.507812 185.667969 289.730469 188.496094 285.164062 188.527344 C 276.953125 188.582031 268.738281 188.585938 260.527344 188.535156 C 255.949219 188.507812 253.9375 186.546875 253.710938 181.941406 C 253.59375 179.550781 253.691406 177.144531 253.691406 174.46875 " fill-opacity="1" fill-rule="nonzero"/><path fill="#15a0ea" d="M 81 92.4375 C 81.320312 93.699219 81.566406 94.695312 81.824219 95.6875 C 88.785156 122.335938 95.746094 148.980469 102.714844 175.628906 C 108.582031 198.082031 114.480469 220.527344 120.289062 242.996094 C 120.789062 244.933594 121.6875 245.460938 123.621094 245.4375 C 132.234375 245.335938 140.84375 245.316406 149.457031 245.457031 C 151.605469 245.488281 152.351562 244.695312 152.855469 242.753906 C 164.367188 198.539062 175.9375 154.339844 187.5 110.140625 C 189.019531 104.335938 190.523438 98.523438 192.078125 92.550781 C 182.984375 92.550781 174.152344 92.550781 165.222656 92.550781 C 154.964844 131.847656 144.730469 171.046875 134.496094 210.25 C 133.789062 209.734375 133.605469 209.300781 133.503906 208.851562 C 128.199219 184.785156 122.902344 160.710938 117.597656 136.644531 C 114.519531 122.6875 111.398438 108.742188 108.386719 94.773438 C 107.992188 92.929688 107.253906 92.308594 105.355469 92.390625 C 101.738281 92.554688 98.113281 92.4375 94.492188 92.4375 C 90.078125 92.4375 85.660156 92.4375 81 92.4375 Z M 135.027344 176.253906 C 137.613281 166.320312 140.199219 156.386719 142.789062 146.453125 C 147.628906 127.902344 152.460938 109.347656 157.320312 90.800781 C 158.53125 86.175781 161.019531 84.324219 165.886719 84.3125 C 174.660156 84.300781 183.433594 84.292969 192.210938 84.316406 C 198.269531 84.332031 201.464844 88.539062 199.925781 94.4375 C 186.683594 145.136719 173.4375 195.832031 160.1875 246.53125 C 159.050781 250.875 155.730469 253.496094 151.242188 253.507812 C 141.585938 253.539062 131.925781 253.527344 122.265625 253.53125 C 117.222656 253.53125 114.148438 251.195312 112.851562 246.28125 C 110.292969 236.582031 107.769531 226.875 105.234375 217.167969 C 94.539062 176.261719 83.84375 135.347656 73.160156 94.433594 C 71.644531 88.632812 74.953125 84.328125 80.917969 84.3125 C 89.609375 84.296875 98.304688 84.304688 106.996094 84.3125 C 111.933594 84.316406 114.699219 86.34375 115.789062 91.164062 C 119.046875 105.5625 122.191406 119.980469 125.378906 134.390625 C 128.457031 148.332031 131.53125 162.277344 134.605469 176.21875 C 134.746094 176.230469 134.886719 176.242188 135.027344 176.253906 " fill-opacity="1" fill-rule="nonzero"/><path fill="#fc1403" d="M 221.9375 250.625 C 221.9375 255.007812 221.9375 258.933594 221.9375 263.164062 C 222.828125 263.21875 223.589844 263.308594 224.355469 263.308594 C 233.289062 263.320312 242.222656 263.328125 251.15625 263.308594 C 256.140625 263.304688 261.683594 257.710938 261.691406 252.710938 C 261.699219 247.644531 261.714844 242.582031 261.6875 237.515625 C 261.664062 232.792969 255.898438 227.019531 251.183594 227.011719 C 239.351562 226.992188 227.515625 227.058594 215.6875 226.933594 C 214.339844 226.921875 212.6875 226.222656 211.71875 225.285156 C 207.972656 221.644531 204.359375 217.855469 200.894531 213.949219 C 199.976562 212.917969 199.296875 211.269531 199.285156 209.902344 C 199.175781 192.9375 199.171875 175.972656 199.277344 159.007812 C 199.289062 157.644531 200.007812 156.011719 200.929688 154.972656 C 204.285156 151.179688 207.765625 147.484375 211.421875 143.988281 C 212.578125 142.886719 214.4375 141.921875 215.980469 141.914062 C 233.285156 141.777344 250.589844 141.804688 267.894531 141.917969 C 269.183594 141.921875 270.769531 142.601562 271.6875 143.507812 C 275.578125 147.339844 279.351562 151.304688 282.976562 155.390625 C 283.839844 156.363281 284.335938 157.976562 284.367188 159.308594 C 284.503906 165.65625 284.433594 172.007812 284.421875 178.363281 C 284.421875 179.371094 284.660156 180.570312 282.996094 180.566406 C 276.007812 180.554688 269.019531 180.5625 261.753906 180.5625 C 261.753906 175.820312 261.753906 171.28125 261.753906 166.523438 C 260.710938 166.460938 259.929688 166.371094 259.152344 166.367188 C 250.460938 166.359375 241.765625 166.351562 233.074219 166.367188 C 227.542969 166.375 222.0625 171.429688 221.921875 176.929688 C 221.769531 182.710938 221.742188 188.511719 222.078125 194.28125 C 222.179688 196 223.546875 197.742188 224.601562 199.289062 C 226.484375 202.0625 229.058594 203.023438 232.582031 202.945312 C 244.246094 202.683594 255.921875 202.882812 267.59375 202.824219 C 269.601562 202.816406 271.113281 203.4375 272.472656 204.917969 C 275.785156 208.53125 279.304688 211.960938 282.515625 215.664062 C 283.523438 216.820312 284.335938 218.601562 284.347656 220.105469 C 284.476562 236.90625 284.46875 253.710938 284.367188 270.515625 C 284.359375 271.90625 283.804688 273.605469 282.898438 274.625 C 279.324219 278.644531 275.566406 282.515625 271.722656 286.285156 C 270.859375 287.136719 269.367188 287.785156 268.160156 287.792969 C 250.613281 287.894531 233.066406 287.902344 215.523438 287.804688 C 214.238281 287.796875 212.648438 287.132812 211.734375 286.230469 C 207.953125 282.515625 204.328125 278.636719 200.777344 274.703125 C 199.984375 273.824219 199.3125 272.480469 199.285156 271.332031 C 199.136719 265.066406 199.175781 258.792969 199.265625 252.523438 C 199.269531 251.882812 200.027344 250.714844 200.453125 250.707031 C 207.511719 250.589844 214.574219 250.625 221.9375 250.625 " fill-opacity="1" fill-rule="nonzero"/><path fill="#fc1403" d="M 81 92.4375 C 85.660156 92.4375 90.078125 92.4375 94.492188 92.4375 C 98.113281 92.4375 101.738281 92.554688 105.355469 92.390625 C 107.253906 92.308594 107.992188 92.929688 108.386719 94.773438 C 111.398438 108.742188 114.519531 122.6875 117.597656 136.644531 C 122.902344 160.710938 128.199219 184.785156 133.503906 208.851562 C 133.605469 209.300781 133.789062 209.734375 134.496094 210.25 C 144.730469 171.046875 154.964844 131.847656 165.222656 92.550781 C 174.152344 92.550781 182.984375 92.550781 192.078125 92.550781 C 190.523438 98.523438 189.019531 104.335938 187.5 110.140625 C 175.9375 154.339844 164.367188 198.539062 152.855469 242.753906 C 152.351562 244.695312 151.605469 245.488281 149.457031 245.457031 C 140.84375 245.316406 132.234375 245.335938 123.621094 245.4375 C 121.6875 245.460938 120.789062 244.933594 120.289062 242.996094 C 114.480469 220.527344 108.582031 198.082031 102.714844 175.628906 C 95.746094 148.980469 88.785156 122.335938 81.824219 95.6875 C 81.566406 94.695312 81.320312 93.699219 81 92.4375 " fill-opacity="1" fill-rule="nonzero"/></svg>